{
	"asset":{
		"version":"2.0",
		"generator":"Created using the official Cinema 4D glTF Exporter 1.000x284978"
	},
	"scenes":[{
		"nodes":[0]
	}],
	"nodes":[{
		"name":"bottomR",
		"children":[1,
		3,
		5]
	},
	{
		"name":"1",
		"children":[2]
	},
	{
		"name":"Bottom",
		"mesh":0
	},
	{
		"name":"2",
		"children":[4]
	},
	{
		"name":"Bottom",
		"mesh":1
	},
	{
		"name":"4",
		"children":[6]
	},
	{
		"name":"Bottom",
		"mesh":2
	}],
	"meshes":[{
		"name":"Bottom",
		"primitives":[{
			"attributes":{
				"POSITION":1,
				"NORMAL":2,
				"TEXCOORD_0":3
			},
			"indices":0,
			"material":0
		}]
	},
	{
		"name":"Bottom",
		"primitives":[{
			"attributes":{
				"POSITION":5,
				"NORMAL":6,
				"TEXCOORD_0":7
			},
			"indices":4,
			"material":0
		}]
	},
	{
		"name":"Bottom",
		"primitives":[{
			"attributes":{
				"POSITION":9,
				"NORMAL":10,
				"TEXCOORD_0":11
			},
			"indices":8,
			"material":1
		}]
	}],
	"accessors":[{
		"bufferView":0,
		"type":"SCALAR",
		"componentType":5123,
		"count":420,
		"min":[0],
		"byteOffset":0,
		"max":[153]
	},
	{
		"bufferView":1,
		"type":"VEC3",
		"componentType":5126,
		"count":154,
		"min":[-0.011450298130512238,
		0.0,
		-0.30480000376701357],
		"byteOffset":0,
		"max":[0.0,
		0.3301999866962433,
		0.30480000376701357]
	},
	{
		"bufferView":1,
		"type":"VEC3",
		"componentType":5126,
		"count":154,
		"min":[-1.0,
		-0.975908100605011,
		-0.7956857085227966],
		"byteOffset":12,
		"max":[-0.06601331382989884,
		0.9839445352554321,
		0.9508156180381775]
	},
	{
		"bufferView":1,
		"type":"VEC2",
		"componentType":5126,
		"count":154,
		"min":[0.00860000029206276,
		-0.00139999995008111],
		"byteOffset":24,
		"max":[0.9956648945808411,
		1.0013577938079835]
	},
	{
		"bufferView":2,
		"type":"SCALAR",
		"componentType":5123,
		"count":420,
		"min":[0],
		"byteOffset":0,
		"max":[153]
	},
	{
		"bufferView":3,
		"type":"VEC3",
		"componentType":5126,
		"count":154,
		"min":[-0.011450298130512238,
		0.0,
		-0.30480000376701357],
		"byteOffset":0,
		"max":[0.0,
		0.3301999866962433,
		0.30480000376701357]
	},
	{
		"bufferView":3,
		"type":"VEC3",
		"componentType":5126,
		"count":154,
		"min":[-1.0,
		-0.975908100605011,
		-0.7956857085227966],
		"byteOffset":12,
		"max":[-0.06601331382989884,
		0.9839445352554321,
		0.9508156180381775]
	},
	{
		"bufferView":3,
		"type":"VEC2",
		"componentType":5126,
		"count":154,
		"min":[0.00860000029206276,
		-0.00139999995008111],
		"byteOffset":24,
		"max":[0.9956648945808411,
		1.0013577938079835]
	},
	{
		"bufferView":4,
		"type":"SCALAR",
		"componentType":5123,
		"count":420,
		"min":[0],
		"byteOffset":0,
		"max":[153]
	},
	{
		"bufferView":5,
		"type":"VEC3",
		"componentType":5126,
		"count":154,
		"min":[-0.011450298130512238,
		0.0,
		-0.30480000376701357],
		"byteOffset":0,
		"max":[0.0,
		0.3301999866962433,
		0.30480000376701357]
	},
	{
		"bufferView":5,
		"type":"VEC3",
		"componentType":5126,
		"count":154,
		"min":[-1.0,
		-0.975908100605011,
		-0.7956857085227966],
		"byteOffset":12,
		"max":[-0.06601331382989884,
		0.9839445352554321,
		0.9508156180381775]
	},
	{
		"bufferView":5,
		"type":"VEC2",
		"componentType":5126,
		"count":154,
		"min":[0.00860000029206276,
		-0.00139999995008111],
		"byteOffset":24,
		"max":[0.9956648945808411,
		1.0013577938079835]
	}],
	"bufferViews":[{
		"buffer":0,
		"byteOffset":0,
		"byteLength":840,
		"target":34963
	},
	{
		"buffer":0,
		"byteOffset":840,
		"byteLength":4928,
		"target":34962,
		"byteStride":32
	},
	{
		"buffer":1,
		"byteOffset":0,
		"byteLength":840,
		"target":34963
	},
	{
		"buffer":1,
		"byteOffset":840,
		"byteLength":4928,
		"target":34962,
		"byteStride":32
	},
	{
		"buffer":2,
		"byteOffset":0,
		"byteLength":840,
		"target":34963
	},
	{
		"buffer":2,
		"byteOffset":840,
		"byteLength":4928,
		"target":34962,
		"byteStride":32
	}],
	"buffers":[{
		"uri":"data:application/octet-stream;base64,",
		"byteLength":5768
	},
	{
		"uri":"data:application/octet-stream;base64,",
		"byteLength":5768
	},
	{
		"uri":"data:application/octet-stream;base64,",
		"byteLength":5768
	}],
	"materials":[{
		"pbrMetallicRoughness":{
			"baseColorFactor":[0.8,
			0.8,
			0.8,
			1.0],
			"metallicFactor":1.0,
			"roughnessFactor":1.0
		},
		"emissiveFactor":[0.0,
		0.0,
		0.0],
		"alphaMode":"OPAQUE",
		"doubleSided":false,
		"name":"Sofa"
	},
	{
		"pbrMetallicRoughness":{
			"baseColorFactor":[0.8,
			0.8,
			0.8,
			1.0],
			"metallicFactor":0.0,
			"roughnessFactor":0.49
		},
		"emissiveFactor":[0.0,
		0.0,
		0.0],
		"alphaMode":"OPAQUE",
		"doubleSided":false,
		"name":"Sofa"
	}]
}