{
	"asset":{
		"version":"2.0",
		"generator":"Created using the official Cinema 4D glTF Exporter 1.000x284978"
	},
	"scenes":[{
		"nodes":[0]
	}],
	"nodes":[{
		"name":"bottomL",
		"children":[1,
		3,
		5,
		7,
		9]
	},
	{
		"name":"1",
		"children":[2]
	},
	{
		"name":"Bottom",
		"mesh":0
	},
	{
		"name":"2",
		"children":[4]
	},
	{
		"name":"Bottom",
		"mesh":1
	},
	{
		"name":"3",
		"children":[6]
	},
	{
		"name":"Bottom",
		"mesh":2
	},
	{
		"name":"4",
		"children":[8]
	},
	{
		"name":"Bottom",
		"mesh":3
	},
	{
		"name":"5",
		"children":[10]
	},
	{
		"name":"Bottom",
		"mesh":4
	}],
	"meshes":[{
		"name":"Bottom",
		"primitives":[{
			"attributes":{
				"NORMAL":2,
				"POSITION":1,
				"TEXCOORD_0":3
			},
			"indices":0,
			"material":0
		}]
	},
	{
		"name":"Bottom",
		"primitives":[{
			"attributes":{
				"NORMAL":6,
				"POSITION":5,
				"TEXCOORD_0":7
			},
			"indices":4,
			"material":0
		}]
	},
	{
		"name":"Bottom",
		"primitives":[{
			"attributes":{
				"NORMAL":10,
				"POSITION":9,
				"TEXCOORD_0":11
			},
			"indices":8,
			"material":1
		}]
	},
	{
		"name":"Bottom",
		"primitives":[{
			"attributes":{
				"NORMAL":14,
				"POSITION":13,
				"TEXCOORD_0":15
			},
			"indices":12,
			"material":1
		}]
	},
	{
		"name":"Bottom",
		"primitives":[{
			"attributes":{
				"NORMAL":18,
				"POSITION":17,
				"TEXCOORD_0":19
			},
			"indices":16,
			"material":1
		}]
	}],
	"accessors":[{
		"bufferView":0,
		"type":"SCALAR",
		"componentType":5123,
		"count":420,
		"byteOffset":0,
		"min":[0],
		"max":[154]
	},
	{
		"bufferView":1,
		"type":"VEC3",
		"componentType":5126,
		"count":155,
		"byteOffset":0,
		"min":[0.0,
		0.0,
		-0.30480000376701357],
		"max":[0.012709971517324448,
		0.3301999866962433,
		0.30480000376701357]
	},
	{
		"bufferView":1,
		"type":"VEC3",
		"componentType":5126,
		"count":155,
		"byteOffset":12,
		"min":[0.03226348012685776,
		-0.9805206656455994,
		-0.8486164808273315],
		"max":[0.9299411177635193,
		0.9931486248970032,
		0.9577460289001465]
	},
	{
		"bufferView":1,
		"type":"VEC2",
		"componentType":5126,
		"count":155,
		"byteOffset":24,
		"min":[0.004335084930062294,
		-0.00139999995008111],
		"max":[0.9914000034332275,
		1.0013577938079835]
	},
	{
		"bufferView":2,
		"type":"SCALAR",
		"componentType":5123,
		"count":420,
		"byteOffset":0,
		"min":[0],
		"max":[154]
	},
	{
		"bufferView":3,
		"type":"VEC3",
		"componentType":5126,
		"count":155,
		"byteOffset":0,
		"min":[0.0,
		0.0,
		-0.30480000376701357],
		"max":[0.012709971517324448,
		0.3301999866962433,
		0.30480000376701357]
	},
	{
		"bufferView":3,
		"type":"VEC3",
		"componentType":5126,
		"count":155,
		"byteOffset":12,
		"min":[0.03226348012685776,
		-0.9805206656455994,
		-0.8486164808273315],
		"max":[0.9299411177635193,
		0.9931486248970032,
		0.9577460289001465]
	},
	{
		"bufferView":3,
		"type":"VEC2",
		"componentType":5126,
		"count":155,
		"byteOffset":24,
		"min":[0.004335084930062294,
		-0.00139999995008111],
		"max":[0.9914000034332275,
		1.0013577938079835]
	},
	{
		"bufferView":4,
		"type":"SCALAR",
		"componentType":5123,
		"count":420,
		"byteOffset":0,
		"min":[0],
		"max":[154]
	},
	{
		"bufferView":5,
		"type":"VEC3",
		"componentType":5126,
		"count":155,
		"byteOffset":0,
		"min":[0.0,
		0.0,
		-0.30480000376701357],
		"max":[0.012709971517324448,
		0.3301999866962433,
		0.30480000376701357]
	},
	{
		"bufferView":5,
		"type":"VEC3",
		"componentType":5126,
		"count":155,
		"byteOffset":12,
		"min":[0.03226348012685776,
		-0.9805206656455994,
		-0.8486164808273315],
		"max":[0.9299411177635193,
		0.9931486248970032,
		0.9577460289001465]
	},
	{
		"bufferView":5,
		"type":"VEC2",
		"componentType":5126,
		"count":155,
		"byteOffset":24,
		"min":[0.004335084930062294,
		-0.00139999995008111],
		"max":[0.9914000034332275,
		1.0013577938079835]
	},
	{
		"bufferView":6,
		"type":"SCALAR",
		"componentType":5123,
		"count":420,
		"byteOffset":0,
		"min":[0],
		"max":[154]
	},
	{
		"bufferView":7,
		"type":"VEC3",
		"componentType":5126,
		"count":155,
		"byteOffset":0,
		"min":[0.0,
		0.0,
		-0.30480000376701357],
		"max":[0.012709971517324448,
		0.3301999866962433,
		0.30480000376701357]
	},
	{
		"bufferView":7,
		"type":"VEC3",
		"componentType":5126,
		"count":155,
		"byteOffset":12,
		"min":[0.03226348012685776,
		-0.9805206656455994,
		-0.8486164808273315],
		"max":[0.9299411177635193,
		0.9931486248970032,
		0.9577460289001465]
	},
	{
		"bufferView":7,
		"type":"VEC2",
		"componentType":5126,
		"count":155,
		"byteOffset":24,
		"min":[0.004335084930062294,
		-0.00139999995008111],
		"max":[0.9914000034332275,
		1.0013577938079835]
	},
	{
		"bufferView":8,
		"type":"SCALAR",
		"componentType":5123,
		"count":420,
		"byteOffset":0,
		"min":[0],
		"max":[154]
	},
	{
		"bufferView":9,
		"type":"VEC3",
		"componentType":5126,
		"count":155,
		"byteOffset":0,
		"min":[0.0,
		0.0,
		-0.30480000376701357],
		"max":[0.012709971517324448,
		0.3301999866962433,
		0.30480000376701357]
	},
	{
		"bufferView":9,
		"type":"VEC3",
		"componentType":5126,
		"count":155,
		"byteOffset":12,
		"min":[0.03226348012685776,
		-0.9805206656455994,
		-0.8486164808273315],
		"max":[0.9299411177635193,
		0.9931486248970032,
		0.9577460289001465]
	},
	{
		"bufferView":9,
		"type":"VEC2",
		"componentType":5126,
		"count":155,
		"byteOffset":24,
		"min":[0.004335084930062294,
		-0.00139999995008111],
		"max":[0.9914000034332275,
		1.0013577938079835]
	}],
	"bufferViews":[{
		"buffer":0,
		"byteOffset":0,
		"byteLength":840,
		"target":34963
	},
	{
		"buffer":0,
		"byteStride":32,
		"byteOffset":840,
		"byteLength":4960,
		"target":34962
	},
	{
		"buffer":1,
		"byteOffset":0,
		"byteLength":840,
		"target":34963
	},
	{
		"buffer":1,
		"byteStride":32,
		"byteOffset":840,
		"byteLength":4960,
		"target":34962
	},
	{
		"buffer":2,
		"byteOffset":0,
		"byteLength":840,
		"target":34963
	},
	{
		"buffer":2,
		"byteStride":32,
		"byteOffset":840,
		"byteLength":4960,
		"target":34962
	},
	{
		"buffer":3,
		"byteOffset":0,
		"byteLength":840,
		"target":34963
	},
	{
		"buffer":3,
		"byteStride":32,
		"byteOffset":840,
		"byteLength":4960,
		"target":34962
	},
	{
		"buffer":4,
		"byteOffset":0,
		"byteLength":840,
		"target":34963
	},
	{
		"buffer":4,
		"byteStride":32,
		"byteOffset":840,
		"byteLength":4960,
		"target":34962
	}],
	"buffers":[{
		"uri":"data:application/octet-stream;base64,",
		"byteLength":5800
	},
	{
		"uri":"data:application/octet-stream;base64,",
		"byteLength":5800
	},
	{
		"uri":"data:application/octet-stream;base64,",
		"byteLength":5800
	},
	{
		"uri":"data:application/octet-stream;base64,",
		"byteLength":5800
	},
	{
		"uri":"data:application/octet-stream;base64,",
		"byteLength":5800
	}],
	"materials":[{
		"pbrMetallicRoughness":{
			"baseColorFactor":[0.8,
			0.8,
			0.8,
			1.0],
			"metallicFactor":1.0,
			"roughnessFactor":1.0
		},
		"emissiveFactor":[0.0,
		0.0,
		0.0],
		"alphaMode":"OPAQUE",
		"doubleSided":false,
		"name":"Sofa"
	},
	{
		"pbrMetallicRoughness":{
			"baseColorFactor":[0.8,
			0.8,
			0.8,
			1.0],
			"metallicFactor":0.0,
			"roughnessFactor":0.49
		},
		"emissiveFactor":[0.0,
		0.0,
		0.0],
		"alphaMode":"OPAQUE",
		"doubleSided":false,
		"name":"Sofa"
	}]
}