{
	"asset":{
		"version":"2.0",
		"generator":"Created using the official Cinema 4D glTF Exporter 1.000x284978"
	},
	"scenes":[{
		"nodes":[0]
	}],
	"nodes":[{
		"name":"leg",
		"children":[1,
		3,
		5,
		7]
	},
	{
		"name":"1",
		"children":[2]
	},
	{
		"name":"Leg",
		"mesh":0
	},
	{
		"scale":[1.0,
		1.0,
		1.0],
		"name":"2",
		"translation":[5.440970294032813e-34,
		9.823566348997092e-18,
		-5.440970294032813e-34],
		"rotation":[-1.0,
		6.123234262925839e-17,
		6.123234262925839e-17,
		-6.123234262925839e-17],
		"children":[4]
	},
	{
		"name":"Leg",
		"mesh":1
	},
	{
		"name":"3",
		"children":[6]
	},
	{
		"name":"Leg",
		"mesh":2
	},
	{
		"name":"4",
		"children":[8]
	},
	{
		"name":"Leg1",
		"mesh":3
	}],
	"meshes":[{
		"name":"Leg",
		"primitives":[{
			"attributes":{
				"POSITION":1,
				"NORMAL":2,
				"TEXCOORD_0":3
			},
			"indices":0,
			"material":0
		}]
	},
	{
		"name":"Leg",
		"primitives":[{
			"attributes":{
				"POSITION":5,
				"NORMAL":6,
				"TEXCOORD_0":7
			},
			"indices":4,
			"material":0
		}]
	},
	{
		"name":"Leg",
		"primitives":[{
			"attributes":{
				"POSITION":9,
				"NORMAL":10,
				"TEXCOORD_0":11
			},
			"indices":8,
			"material":0
		}]
	},
	{
		"name":"Leg1",
		"primitives":[{
			"attributes":{
				"POSITION":13,
				"NORMAL":14,
				"TEXCOORD_0":15
			},
			"indices":12,
			"material":1
		}]
	}],
	"accessors":[{
		"bufferView":0,
		"type":"SCALAR",
		"componentType":5123,
		"count":420,
		"min":[0],
		"byteOffset":0,
		"max":[145]
	},
	{
		"bufferView":1,
		"type":"VEC3",
		"componentType":5126,
		"count":146,
		"min":[-0.02539999969303608,
		-0.038100000470876697,
		-0.02539999969303608],
		"byteOffset":0,
		"max":[0.02539999969303608,
		0.0,
		0.02539999969303608]
	},
	{
		"bufferView":1,
		"type":"VEC3",
		"componentType":5126,
		"count":146,
		"min":[-0.9868288040161133,
		-1.0,
		-0.9868288636207581],
		"byteOffset":12,
		"max":[0.9868288040161133,
		1.0,
		0.9868288636207581]
	},
	{
		"bufferView":1,
		"type":"VEC2",
		"componentType":5126,
		"count":146,
		"min":[0.0,
		0.0],
		"byteOffset":24,
		"max":[1.0,
		1.0]
	},
	{
		"bufferView":2,
		"type":"SCALAR",
		"componentType":5123,
		"count":36,
		"min":[0],
		"byteOffset":0,
		"max":[23]
	},
	{
		"bufferView":3,
		"type":"VEC3",
		"componentType":5126,
		"count":24,
		"min":[-0.019050000235438348,
		-3.11060276733831e-18,
		-0.02539999969303608],
		"byteOffset":0,
		"max":[0.019050000235438348,
		0.038100000470876697,
		0.02539999969303608]
	},
	{
		"bufferView":3,
		"type":"VEC3",
		"componentType":5126,
		"count":24,
		"min":[-1.0,
		-1.0,
		-0.9641724228858948],
		"byteOffset":12,
		"max":[1.0,
		1.0,
		1.0]
	},
	{
		"bufferView":3,
		"type":"VEC2",
		"componentType":5126,
		"count":24,
		"min":[0.0,
		0.0],
		"byteOffset":24,
		"max":[1.0,
		1.0]
	},
	{
		"bufferView":4,
		"type":"SCALAR",
		"componentType":5123,
		"count":420,
		"min":[0],
		"byteOffset":0,
		"max":[145]
	},
	{
		"bufferView":5,
		"type":"VEC3",
		"componentType":5126,
		"count":146,
		"min":[-0.02539999969303608,
		-0.038100000470876697,
		-0.02539999969303608],
		"byteOffset":0,
		"max":[0.02539999969303608,
		0.0,
		0.02539999969303608]
	},
	{
		"bufferView":5,
		"type":"VEC3",
		"componentType":5126,
		"count":146,
		"min":[-0.9868288040161133,
		-1.0,
		-0.9868288636207581],
		"byteOffset":12,
		"max":[0.9868288040161133,
		1.0,
		0.9868288636207581]
	},
	{
		"bufferView":5,
		"type":"VEC2",
		"componentType":5126,
		"count":146,
		"min":[0.0,
		0.0],
		"byteOffset":24,
		"max":[1.0,
		1.0]
	},
	{
		"bufferView":6,
		"type":"SCALAR",
		"componentType":5123,
		"count":36,
		"min":[0],
		"byteOffset":0,
		"max":[23]
	},
	{
		"bufferView":7,
		"type":"VEC3",
		"componentType":5126,
		"count":24,
		"min":[-0.07620000094175339,
		-0.051934316754341128,
		-0.03175000101327896],
		"byteOffset":0,
		"max":[0.07620000094175339,
		0.0,
		0.03175000101327896]
	},
	{
		"bufferView":7,
		"type":"VEC3",
		"componentType":5126,
		"count":24,
		"min":[-0.970076322555542,
		-1.0,
		-1.0],
		"byteOffset":12,
		"max":[0.970076322555542,
		1.0,
		1.0]
	},
	{
		"bufferView":7,
		"type":"VEC2",
		"componentType":5126,
		"count":24,
		"min":[0.0,
		0.0],
		"byteOffset":24,
		"max":[1.0,
		1.0]
	}],
	"bufferViews":[{
		"buffer":0,
		"byteOffset":0,
		"byteLength":840,
		"target":34963
	},
	{
		"buffer":0,
		"byteOffset":840,
		"byteLength":4672,
		"target":34962,
		"byteStride":32
	},
	{
		"buffer":1,
		"byteOffset":0,
		"byteLength":72,
		"target":34963
	},
	{
		"buffer":1,
		"byteOffset":72,
		"byteLength":768,
		"target":34962,
		"byteStride":32
	},
	{
		"buffer":2,
		"byteOffset":0,
		"byteLength":840,
		"target":34963
	},
	{
		"buffer":2,
		"byteOffset":840,
		"byteLength":4672,
		"target":34962,
		"byteStride":32
	},
	{
		"buffer":3,
		"byteOffset":0,
		"byteLength":72,
		"target":34963
	},
	{
		"buffer":3,
		"byteOffset":72,
		"byteLength":768,
		"target":34962,
		"byteStride":32
	}],
	"buffers":[{
		"uri":"data:application/octet-stream;base64,",
		"byteLength":5512
	},
	{
		"uri":"data:application/octet-stream;base64,",
		"byteLength":840
	},
	{
		"uri":"data:application/octet-stream;base64,",
		"byteLength":5512
	},
	{
		"uri":"data:application/octet-stream;base64,",
		"byteLength":840
	}],
	"materials":[{
		"pbrMetallicRoughness":{
			"baseColorFactor":[0.35000000000000006,
			0.21525000000000006,
			0.11899999999999997,
			1.0],
			"metallicFactor":0.0,
			"roughnessFactor":0.5
		},
		"emissiveFactor":[0.0,
		0.0,
		0.0],
		"alphaMode":"OPAQUE",
		"doubleSided":false,
		"name":"Legs"
	},
	{
		"pbrMetallicRoughness":{
			"baseColorFactor":[0.05,
			0.048541666666666666,
			0.0475,
			1.0],
			"metallicFactor":0.0,
			"roughnessFactor":0.5
		},
		"emissiveFactor":[0.0,
		0.0,
		0.0],
		"alphaMode":"OPAQUE",
		"doubleSided":false,
		"name":"Legs"
	}]
}