{
	"asset":{
		"version":"2.0",
		"generator":"Created using the official Cinema 4D glTF Exporter 1.000x284978"
	},
	"scenes":[{
		"nodes":[0]
	}],
	"buffers":[{
		"uri":"data:application/octet-stream;base64,",
		"byteLength":3752
	},
	{
		"uri":"data:application/octet-stream;base64,",
		"byteLength":1624
	},
	{
		"uri":"data:application/octet-stream;base64,",
		"byteLength":1624
	},
	{
		"uri":"data:application/octet-stream;base64,",
		"byteLength":2536
	},
	{
		"uri":"data:application/octet-stream;base64,",
		"byteLength":5616
	}],
	"nodes":[{
		"name":"SingleBack",
		"children":[1,
		3,
		5,
		7,
		9]
	},
	{
		"name":"1",
		"children":[2]
	},
	{
		"name":"1",
		"mesh":0
	},
	{
		"name":"2",
		"children":[4]
	},
	{
		"name":"2",
		"mesh":1
	},
	{
		"name":"3",
		"children":[6]
	},
	{
		"name":"Back",
		"mesh":2
	},
	{
		"name":"4",
		"children":[8]
	},
	{
		"name":"Back",
		"mesh":3
	},
	{
		"name":"5",
		"children":[10]
	},
	{
		"name":"Back",
		"translation":[0.0,
		-0.007102040573954582,
		-0.07560332864522934],
		"rotation":[0.062571220099926,
		0.0,
		0.0,
		-0.998040497303009],
		"scale":[1.0,
		1.0,
		1.0],
		"mesh":4
	}],
	"meshes":[{
		"name":"1",
		"primitives":[{
			"attributes":{
				"POSITION":1,
				"NORMAL":2,
				"TEXCOORD_0":3
			},
			"indices":0,
			"material":0
		}]
	},
	{
		"name":"2",
		"primitives":[{
			"attributes":{
				"POSITION":5,
				"NORMAL":6,
				"TEXCOORD_0":7
			},
			"indices":4,
			"material":1
		}]
	},
	{
		"name":"Back",
		"primitives":[{
			"attributes":{
				"POSITION":9,
				"NORMAL":10,
				"TEXCOORD_0":11
			},
			"indices":8,
			"material":2
		}]
	},
	{
		"name":"Back",
		"primitives":[{
			"attributes":{
				"POSITION":13,
				"NORMAL":14,
				"TEXCOORD_0":15
			},
			"indices":12,
			"material":3
		}]
	},
	{
		"name":"Back",
		"primitives":[{
			"attributes":{
				"POSITION":17,
				"NORMAL":18
			},
			"indices":16,
			"material":4
		}]
	}],
	"accessors":[{
		"type":"SCALAR",
		"bufferView":0,
		"componentType":5123,
		"byteOffset":0,
		"count":372,
		"min":[0],
		"max":[93]
	},
	{
		"type":"VEC3",
		"bufferView":1,
		"componentType":5126,
		"byteOffset":0,
		"count":94,
		"min":[-0.27994659543037417,
		3.552713599391162e-17,
		-0.15240000188350678],
		"max":[0.27994659543037417,
		0.6848015785217285,
		-4.440891999238953e-18]
	},
	{
		"type":"VEC3",
		"bufferView":1,
		"componentType":5126,
		"byteOffset":12,
		"count":94,
		"min":[0.0,
		-1.0,
		-1.0],
		"max":[0.0,
		0.9999688267707825,
		1.0]
	},
	{
		"type":"VEC2",
		"bufferView":1,
		"componentType":5126,
		"byteOffset":24,
		"count":94,
		"min":[0.0,
		0.05515781790018082],
		"max":[1.5779764652252198,
		1.302577018737793]
	},
	{
		"type":"SCALAR",
		"bufferView":2,
		"componentType":5123,
		"byteOffset":0,
		"count":108,
		"min":[0],
		"max":[43]
	},
	{
		"type":"VEC3",
		"bufferView":3,
		"componentType":5126,
		"byteOffset":0,
		"count":44,
		"min":[-0.27994659543037417,
		0.0,
		-0.15240000188350678],
		"max":[0.27994659543037417,
		0.7663464546203613,
		0.0]
	},
	{
		"type":"VEC3",
		"bufferView":3,
		"componentType":5126,
		"byteOffset":12,
		"count":44,
		"min":[0.0,
		-0.9962141513824463,
		-0.999999463558197],
		"max":[0.0,
		0.9966221451759338,
		0.9995648860931397]
	},
	{
		"type":"VEC2",
		"bufferView":3,
		"componentType":5126,
		"byteOffset":24,
		"count":44,
		"min":[1.4475762844085694,
		1.2506999969482422],
		"max":[2.5524234771728517,
		2.757992744445801]
	},
	{
		"type":"SCALAR",
		"bufferView":4,
		"componentType":5123,
		"byteOffset":0,
		"count":108,
		"min":[0],
		"max":[43]
	},
	{
		"type":"VEC3",
		"bufferView":5,
		"componentType":5126,
		"byteOffset":0,
		"count":44,
		"min":[-0.27994659543037417,
		0.0,
		-0.15240000188350678],
		"max":[0.27994659543037417,
		0.6858000159263611,
		6.446132073251733e-18]
	},
	{
		"type":"VEC3",
		"bufferView":5,
		"componentType":5126,
		"byteOffset":12,
		"count":44,
		"min":[0.0,
		-0.9955143332481384,
		-1.0],
		"max":[0.0,
		0.9980108141899109,
		0.9986544251441956]
	},
	{
		"type":"VEC2",
		"bufferView":5,
		"componentType":5126,
		"byteOffset":24,
		"count":44,
		"min":[0.20135760307312013,
		-0.02349230647087097],
		"max":[1.7986423969268799,
		2.0234923362731935]
	},
	{
		"type":"SCALAR",
		"bufferView":6,
		"componentType":5123,
		"byteOffset":0,
		"count":180,
		"min":[0],
		"max":[67]
	},
	{
		"type":"VEC3",
		"bufferView":7,
		"componentType":5126,
		"byteOffset":0,
		"count":68,
		"min":[-0.27994659543037417,
		7.105427198782324e-17,
		-0.15240000188350678],
		"max":[0.27994659543037417,
		0.7620227932929993,
		0.0]
	},
	{
		"type":"VEC3",
		"bufferView":7,
		"componentType":5126,
		"byteOffset":12,
		"count":68,
		"min":[0.0,
		-1.0,
		-1.0],
		"max":[0.0,
		1.0,
		1.0]
	},
	{
		"type":"VEC2",
		"bufferView":7,
		"componentType":5126,
		"byteOffset":24,
		"count":68,
		"min":[1.4633862972259522,
		0.5074546337127686],
		"max":[2.536613702774048,
		2.153176784515381]
	},
	{
		"type":"SCALAR",
		"bufferView":8,
		"componentType":5123,
		"byteOffset":0,
		"count":792,
		"min":[0],
		"max":[167]
	},
	{
		"type":"VEC3",
		"bufferView":9,
		"componentType":5126,
		"byteOffset":0,
		"count":168,
		"min":[-0.233181431889534,
		2.902887737660106e-19,
		-0.07620000094175339],
		"max":[0.23321419954299928,
		0.6096000075340271,
		0.07620000094175339]
	},
	{
		"type":"VEC3",
		"bufferView":9,
		"componentType":5126,
		"byteOffset":12,
		"count":168,
		"min":[-0.1011335626244545,
		-0.9828633666038513,
		-0.9999837279319763],
		"max":[0.10341226309537888,
		0.9903097748756409,
		0.9999837875366211]
	}],
	"bufferViews":[{
		"buffer":0,
		"byteOffset":0,
		"byteLength":744,
		"target":34963
	},
	{
		"buffer":0,
		"byteOffset":744,
		"byteLength":3008,
		"target":34962,
		"byteStride":32
	},
	{
		"buffer":1,
		"byteOffset":0,
		"byteLength":216,
		"target":34963
	},
	{
		"buffer":1,
		"byteOffset":216,
		"byteLength":1408,
		"target":34962,
		"byteStride":32
	},
	{
		"buffer":2,
		"byteOffset":0,
		"byteLength":216,
		"target":34963
	},
	{
		"buffer":2,
		"byteOffset":216,
		"byteLength":1408,
		"target":34962,
		"byteStride":32
	},
	{
		"buffer":3,
		"byteOffset":0,
		"byteLength":360,
		"target":34963
	},
	{
		"buffer":3,
		"byteOffset":360,
		"byteLength":2176,
		"target":34962,
		"byteStride":32
	},
	{
		"buffer":4,
		"byteOffset":0,
		"byteLength":1584,
		"target":34963
	},
	{
		"buffer":4,
		"byteOffset":1584,
		"byteLength":4032,
		"target":34962,
		"byteStride":24
	}],
	"materials":[{
		"pbrMetallicRoughness":{
			"baseColorFactor":[0.8,
			0.8,
			0.8,
			1.0],
			"metallicFactor":1.0,
			"roughnessFactor":1.0
		},
		"emissiveFactor":[0.0,
		0.0,
		0.0],
		"alphaMode":"OPAQUE",
		"doubleSided":false,
		"name":"Sofa"
	},
	{
		"pbrMetallicRoughness":{
			"baseColorFactor":[0.8,
			0.8,
			0.8,
			1.0],
			"metallicFactor":1.0,
			"roughnessFactor":1.0
		},
		"emissiveFactor":[0.0,
		0.0,
		0.0],
		"alphaMode":"OPAQUE",
		"doubleSided":false,
		"name":"Sofa"
	},
	{
		"pbrMetallicRoughness":{
			"baseColorFactor":[0.37647058823529419,
			0.39215686274509806,
			0.2980392156862745,
			1.0],
			"metallicFactor":0.0,
			"roughnessFactor":0.5
		},
		"emissiveFactor":[0.0,
		0.0,
		0.0],
		"alphaMode":"OPAQUE",
		"doubleSided":false,
		"name":"Sofa"
	},
	{
		"pbrMetallicRoughness":{
			"baseColorFactor":[0.8,
			0.8,
			0.8,
			1.0],
			"metallicFactor":0.0,
			"roughnessFactor":0.49
		},
		"emissiveFactor":[0.0,
		0.0,
		0.0],
		"alphaMode":"OPAQUE",
		"doubleSided":false,
		"name":"Sofa"
	},
	{
		"pbrMetallicRoughness":{
			"baseColorFactor":[0.8,
			0.8,
			0.8,
			1.0],
			"metallicFactor":0.0,
			"roughnessFactor":0.5
		},
		"emissiveFactor":[0.0,
		0.0,
		0.0],
		"alphaMode":"OPAQUE",
		"doubleSided":false,
		"name":"Sofa"
	}]
}