{
	"asset":{
		"version":"2.0",
		"generator":"Created using the official Cinema 4D glTF Exporter 1.000x284978"
	},
	"scenes":[{
		"nodes":[0]
	}],
	"buffers":[{
		"uri":"data:application/octet-stream;base64,",
		"byteLength":4380
	},
	{
		"uri":"data:application/octet-stream;base64,",
		"byteLength":4400
	},
	{
		"uri":"data:application/octet-stream;base64,",
		"byteLength":3608
	},
	{
		"uri":"data:application/octet-stream;base64,",
		"byteLength":10644
	},
	{
		"uri":"data:application/octet-stream;base64,",
		"byteLength":3000
	}],
	"nodes":[{
		"name":"SingleBackR",
		"children":[1,
		3,
		5,
		7,
		9]
	},
	{
		"name":"1",
		"children":[2]
	},
	{
		"name":"1",
		"mesh":0
	},
	{
		"name":"2",
		"children":[4]
	},
	{
		"name":"2",
		"mesh":1
	},
	{
		"name":"3",
		"children":[6]
	},
	{
		"name":"Back.1",
		"mesh":2
	},
	{
		"name":"4",
		"children":[8]
	},
	{
		"name":"Back",
		"mesh":3
	},
	{
		"name":"5",
		"children":[10]
	},
	{
		"name":"Back",
		"translation":[0.0,
		0.0021904774475842716,
		-0.013364770449697972],
		"rotation":[0.062571220099926,
		0.0,
		0.0,
		-0.998040497303009],
		"scale":[1.0,
		1.0,
		1.0],
		"mesh":4
	}],
	"meshes":[{
		"name":"1",
		"primitives":[{
			"attributes":{
				"POSITION":1,
				"NORMAL":2,
				"TEXCOORD_0":3
			},
			"indices":0,
			"material":0
		}]
	},
	{
		"name":"2",
		"primitives":[{
			"attributes":{
				"POSITION":5,
				"NORMAL":6,
				"TEXCOORD_0":7
			},
			"indices":4,
			"material":1
		}]
	},
	{
		"name":"Back.1",
		"primitives":[{
			"attributes":{
				"POSITION":9,
				"NORMAL":10,
				"TEXCOORD_0":11
			},
			"indices":8,
			"material":2
		}]
	},
	{
		"name":"Back",
		"primitives":[{
			"attributes":{
				"POSITION":13,
				"NORMAL":14,
				"TEXCOORD_0":15
			},
			"indices":12,
			"material":3
		}]
	},
	{
		"name":"Back",
		"primitives":[{
			"attributes":{
				"POSITION":17,
				"NORMAL":18
			},
			"indices":16,
			"material":4
		}]
	}],
	"accessors":[{
		"type":"SCALAR",
		"bufferView":0,
		"componentType":5123,
		"byteOffset":0,
		"count":414,
		"min":[0],
		"max":[110]
	},
	{
		"type":"VEC3",
		"bufferView":1,
		"componentType":5126,
		"byteOffset":0,
		"count":111,
		"min":[-0.024945320561528207,
		0.0,
		-0.15240000188350678],
		"max":[-1.1102229998097382e-18,
		0.6848069429397583,
		0.0]
	},
	{
		"type":"VEC3",
		"bufferView":1,
		"componentType":5126,
		"byteOffset":12,
		"count":111,
		"min":[-1.0,
		-1.0,
		-1.0],
		"max":[0.007672569714486599,
		0.999968945980072,
		1.0]
	},
	{
		"type":"VEC2",
		"bufferView":1,
		"componentType":5126,
		"byteOffset":24,
		"count":111,
		"min":[0.0,
		0.0],
		"max":[2.0,
		1.358142375946045]
	},
	{
		"type":"SCALAR",
		"bufferView":2,
		"componentType":5123,
		"byteOffset":0,
		"count":408,
		"min":[0],
		"max":[111]
	},
	{
		"type":"VEC3",
		"bufferView":3,
		"componentType":5126,
		"byteOffset":0,
		"count":112,
		"min":[-0.024521535262465478,
		0.0,
		-0.15240000188350678],
		"max":[0.0,
		0.7663464546203613,
		0.0]
	},
	{
		"type":"VEC3",
		"bufferView":3,
		"componentType":5126,
		"byteOffset":12,
		"count":112,
		"min":[-0.9961538910865784,
		-0.9962141513824463,
		-0.9999990463256836],
		"max":[0.0,
		0.9999433755874634,
		0.9990206360816956]
	},
	{
		"type":"VEC2",
		"bufferView":3,
		"componentType":5126,
		"byteOffset":24,
		"count":112,
		"min":[1.3938030004501343,
		1.2506999969482422],
		"max":[2.6061971187591554,
		2.757992744445801]
	},
	{
		"type":"SCALAR",
		"bufferView":4,
		"componentType":5123,
		"byteOffset":0,
		"count":300,
		"min":[0],
		"max":[93]
	},
	{
		"type":"VEC3",
		"bufferView":5,
		"componentType":5126,
		"byteOffset":0,
		"count":94,
		"min":[-0.024853413924574853,
		0.0,
		-0.15240000188350678],
		"max":[0.0,
		0.6858000159263611,
		6.446132073251733e-18]
	},
	{
		"type":"VEC3",
		"bufferView":5,
		"componentType":5126,
		"byteOffset":12,
		"count":94,
		"min":[-0.9962273240089417,
		-0.9941427707672119,
		-0.9872146844863892],
		"max":[-0.03962205350399017,
		0.9941427111625671,
		0.9817826151847839]
	},
	{
		"type":"VEC2",
		"bufferView":5,
		"componentType":5126,
		"byteOffset":24,
		"count":94,
		"min":[0.17237061262130738,
		-0.02349230647087097],
		"max":[1.8179670572280884,
		2.0234923362731935]
	},
	{
		"type":"SCALAR",
		"bufferView":6,
		"componentType":5123,
		"byteOffset":0,
		"count":1146,
		"min":[0],
		"max":[260]
	},
	{
		"type":"VEC3",
		"bufferView":7,
		"componentType":5126,
		"byteOffset":0,
		"count":261,
		"min":[-0.22373932600021363,
		7.105427198782324e-17,
		-0.15240000188350678],
		"max":[3.552713599391162e-17,
		0.7620227932929993,
		0.0]
	},
	{
		"type":"VEC3",
		"bufferView":7,
		"componentType":5126,
		"byteOffset":12,
		"count":261,
		"min":[-1.0,
		-1.0,
		-1.0],
		"max":[0.0,
		1.0,
		1.0]
	},
	{
		"type":"VEC2",
		"bufferView":7,
		"componentType":5126,
		"byteOffset":24,
		"count":261,
		"min":[1.034513235092163,
		0.4881467819213867],
		"max":[2.965486764907837,
		2.153176784515381]
	},
	{
		"type":"SCALAR",
		"bufferView":8,
		"componentType":5123,
		"byteOffset":0,
		"count":420,
		"min":[0],
		"max":[89]
	},
	{
		"type":"VEC3",
		"bufferView":9,
		"componentType":5126,
		"byteOffset":0,
		"count":90,
		"min":[-0.07541730999946594,
		2.7298221664684059e-19,
		-0.12582364678382874],
		"max":[0.0,
		0.5959116220474243,
		-1.060999094558902e-17]
	},
	{
		"type":"VEC3",
		"bufferView":9,
		"componentType":5126,
		"byteOffset":12,
		"count":90,
		"min":[-0.98192298412323,
		-0.9828633069992065,
		-0.979062557220459],
		"max":[5.423933657766611e-8,
		0.9771412014961243,
		0.9790917038917542]
	}],
	"bufferViews":[{
		"buffer":0,
		"byteOffset":0,
		"byteLength":828,
		"target":34963
	},
	{
		"buffer":0,
		"byteOffset":828,
		"byteLength":3552,
		"target":34962,
		"byteStride":32
	},
	{
		"buffer":1,
		"byteOffset":0,
		"byteLength":816,
		"target":34963
	},
	{
		"buffer":1,
		"byteOffset":816,
		"byteLength":3584,
		"target":34962,
		"byteStride":32
	},
	{
		"buffer":2,
		"byteOffset":0,
		"byteLength":600,
		"target":34963
	},
	{
		"buffer":2,
		"byteOffset":600,
		"byteLength":3008,
		"target":34962,
		"byteStride":32
	},
	{
		"buffer":3,
		"byteOffset":0,
		"byteLength":2292,
		"target":34963
	},
	{
		"buffer":3,
		"byteOffset":2292,
		"byteLength":8352,
		"target":34962,
		"byteStride":32
	},
	{
		"buffer":4,
		"byteOffset":0,
		"byteLength":840,
		"target":34963
	},
	{
		"buffer":4,
		"byteOffset":840,
		"byteLength":2160,
		"target":34962,
		"byteStride":24
	}],
	"materials":[{
		"pbrMetallicRoughness":{
			"baseColorFactor":[0.8,
			0.8,
			0.8,
			1.0],
			"metallicFactor":1.0,
			"roughnessFactor":1.0
		},
		"emissiveFactor":[0.0,
		0.0,
		0.0],
		"alphaMode":"OPAQUE",
		"doubleSided":false,
		"name":"Sofa"
	},
	{
		"pbrMetallicRoughness":{
			"baseColorFactor":[0.8,
			0.8,
			0.8,
			1.0],
			"metallicFactor":1.0,
			"roughnessFactor":1.0
		},
		"emissiveFactor":[0.0,
		0.0,
		0.0],
		"alphaMode":"OPAQUE",
		"doubleSided":false,
		"name":"Sofa"
	},
	{
		"pbrMetallicRoughness":{
			"baseColorFactor":[0.37647058823529419,
			0.39215686274509806,
			0.2980392156862745,
			1.0],
			"metallicFactor":0.0,
			"roughnessFactor":0.5
		},
		"emissiveFactor":[0.0,
		0.0,
		0.0],
		"alphaMode":"OPAQUE",
		"doubleSided":false,
		"name":"Sofa"
	},
	{
		"pbrMetallicRoughness":{
			"baseColorFactor":[0.8,
			0.8,
			0.8,
			1.0],
			"metallicFactor":0.0,
			"roughnessFactor":0.49
		},
		"emissiveFactor":[0.0,
		0.0,
		0.0],
		"alphaMode":"OPAQUE",
		"doubleSided":false,
		"name":"Sofa"
	},
	{
		"pbrMetallicRoughness":{
			"baseColorFactor":[0.8,
			0.8,
			0.8,
			1.0],
			"metallicFactor":0.0,
			"roughnessFactor":0.5
		},
		"emissiveFactor":[0.0,
		0.0,
		0.0],
		"alphaMode":"OPAQUE",
		"doubleSided":false,
		"name":"Sofa"
	}]
}