{
	"asset":{
		"version":"2.0",
		"generator":"Created using the official Cinema 4D glTF Exporter 1.000x284978"
	},
	"nodes":[{
		"name":"SingleBack",
		"children":[1,
		2]
	},
	{
		"name":"2",
		"mesh":0
	},
	{
		"name":"1",
		"mesh":1
	}],
	"scenes":[{
		"nodes":[0]
	}],
	"meshes":[{
		"primitives":[{
			"attributes":{
				"POSITION":1,
				"NORMAL":2,
				"TEXCOORD_0":3
			},
			"indices":0,
			"material":0
		}],
		"name":"2"
	},
	{
		"primitives":[{
			"attributes":{
				"POSITION":5,
				"NORMAL":6,
				"TEXCOORD_0":7
			},
			"indices":4,
			"material":1
		}],
		"name":"1"
	}],
	"accessors":[{
		"bufferView":0,
		"type":"SCALAR",
		"componentType":5123,
		"count":108,
		"byteOffset":0,
		"min":[0],
		"max":[43]
	},
	{
		"bufferView":1,
		"type":"VEC3",
		"componentType":5126,
		"count":44,
		"byteOffset":0,
		"min":[-0.27994659543037417,
		0.0,
		-0.15240000188350678],
		"max":[0.27994659543037417,
		0.7663464546203613,
		0.0]
	},
	{
		"bufferView":1,
		"type":"VEC3",
		"componentType":5126,
		"count":44,
		"byteOffset":12,
		"min":[0.0,
		-0.9962141513824463,
		-0.999999463558197],
		"max":[0.0,
		0.9966221451759338,
		0.9995648860931397]
	},
	{
		"bufferView":1,
		"type":"VEC2",
		"componentType":5126,
		"count":44,
		"byteOffset":24,
		"min":[1.4475762844085694,
		1.2506999969482422],
		"max":[2.5524234771728517,
		2.757992744445801]
	},
	{
		"bufferView":2,
		"type":"SCALAR",
		"componentType":5123,
		"count":372,
		"byteOffset":0,
		"min":[0],
		"max":[93]
	},
	{
		"bufferView":3,
		"type":"VEC3",
		"componentType":5126,
		"count":94,
		"byteOffset":0,
		"min":[-0.27994659543037417,
		3.552713599391162e-17,
		-0.15240000188350678],
		"max":[0.27994659543037417,
		0.6848015785217285,
		-4.440891999238953e-18]
	},
	{
		"bufferView":3,
		"type":"VEC3",
		"componentType":5126,
		"count":94,
		"byteOffset":12,
		"min":[0.0,
		-1.0,
		-1.0],
		"max":[0.0,
		0.9999688267707825,
		1.0]
	},
	{
		"bufferView":3,
		"type":"VEC2",
		"componentType":5126,
		"count":94,
		"byteOffset":24,
		"min":[0.0,
		0.05515781790018082],
		"max":[1.5779764652252198,
		1.302577018737793]
	}],
	"bufferViews":[{
		"buffer":0,
		"byteOffset":0,
		"byteLength":216,
		"target":34963
	},
	{
		"buffer":0,
		"byteOffset":216,
		"byteLength":1408,
		"target":34962,
		"byteStride":32
	},
	{
		"buffer":1,
		"byteOffset":0,
		"byteLength":744,
		"target":34963
	},
	{
		"buffer":1,
		"byteOffset":744,
		"byteLength":3008,
		"target":34962,
		"byteStride":32
	}],
	"buffers":[{
		"uri":"data:application/octet-stream;base64,",
		"byteLength":1624
	},
	{
		"uri":"data:application/octet-stream;base64,",
		"byteLength":3752
	}],
	"images":[{
		"uri":"data:image/jpeg;base64,"
	},
	{
		"uri":"data:image/jpeg;base64,"
	}],
	"samplers":[{
		"magFilter":9729,
		"minFilter":9729,
		"wrapS":10497,
		"wrapT":10497
	},
	{
		"magFilter":9729,
		"minFilter":9729,
		"wrapS":10497,
		"wrapT":10497
	},
	{
		"magFilter":9729,
		"minFilter":9729,
		"wrapS":10497,
		"wrapT":10497
	}],
	"textures":[{
		"sampler":0,
		"source":0
	},
	{
		"sampler":1,
		"source":1
	},
	{
		"sampler":2,
		"source":1
	}],
	"materials":[{
		"pbrMetallicRoughness":{
			"baseColorTexture":{
				"index":0
			},
			"baseColorFactor":[0.8,
			0.8,
			0.8,
			1.0],
			"metallicFactor":1.0,
			"roughnessFactor":1.0
		},
		"normalTexture":{
			"index":1,
			"scale":0.2
		},
		"emissiveFactor":[0.0,
		0.0,
		0.0],
		"alphaMode":"OPAQUE",
		"doubleSided":false,
		"name":"Sofa"
	},
	{
		"pbrMetallicRoughness":{
			"baseColorFactor":[0.8,
			0.8,
			0.8,
			1.0],
			"metallicFactor":1.0,
			"roughnessFactor":1.0
		},
		"normalTexture":{
			"index":2,
			"scale":0.2
		},
		"emissiveFactor":[0.0,
		0.0,
		0.0],
		"alphaMode":"OPAQUE",
		"doubleSided":false,
		"name":"Sofa"
	}]
}