{
	"asset":{
		"version":"2.0",
		"generator":"Created using the official Cinema 4D glTF Exporter 1.000x284978"
	},
	"nodes":[{
		"name":"armrestR",
		"mesh":0
	}],
	"scenes":[{
		"nodes":[0]
	}],
	"meshes":[{
		"primitives":[{
			"attributes":{
				"POSITION":1,
				"NORMAL":2,
				"TEXCOORD_0":3
			},
			"indices":0,
			"material":0
		}],
		"name":"armrestR"
	}],
	"accessors":[{
		"bufferView":0,
		"type":"SCALAR",
		"componentType":5123,
		"count":4632,
		"byteOffset":0,
		"min":[0],
		"max":[1050]
	},
	{
		"bufferView":1,
		"type":"VEC3",
		"componentType":5126,
		"count":1051,
		"byteOffset":0,
		"min":[0.0,
		0.0,
		-0.4483069181442261],
		"max":[0.15240000188350678,
		0.589102566242218,
		0.3112708032131195]
	},
	{
		"bufferView":1,
		"type":"VEC3",
		"componentType":5126,
		"count":1051,
		"byteOffset":12,
		"min":[-1.0,
		-1.0,
		-1.0],
		"max":[1.0,
		0.9997593760490418,
		0.9999004602432251]
	},
	{
		"bufferView":1,
		"type":"VEC2",
		"componentType":5126,
		"count":1051,
		"byteOffset":24,
		"min":[-1.0896726846694947,
		-1.089672565460205],
		"max":[2.089672803878784,
		2.089672565460205]
	}],
	"bufferViews":[{
		"buffer":0,
		"byteOffset":0,
		"byteLength":9264,
		"target":34963
	},
	{
		"buffer":0,
		"byteOffset":9264,
		"byteLength":33632,
		"target":34962,
		"byteStride":32
	}],
	"buffers":[{
		"uri":"data:application/octet-stream;base64,",
		"byteLength":42896
	}],
	"images":[{
		"uri":"data:image/jpeg;base64,"
	}],
	"samplers":[{
		"magFilter":9729,
		"minFilter":9729,
		"wrapS":10497,
		"wrapT":10497
	}],
	"textures":[{
		"sampler":0,
		"source":0
	}],
	"materials":[{
		"pbrMetallicRoughness":{
			"baseColorFactor":[0.8,
			0.8,
			0.8,
			1.0],
			"metallicFactor":1.0,
			"roughnessFactor":1.0
		},
		"normalTexture":{
			"index":0,
			"scale":0.2
		},
		"emissiveFactor":[0.0,
		0.0,
		0.0],
		"alphaMode":"OPAQUE",
		"doubleSided":false,
		"name":"Sofa"
	}]
}