{
	"asset":{
		"version":"2.0",
		"generator":"Created using the official Cinema 4D glTF Exporter 1.000x284978"
	},
	"scenes":[{
		"nodes":[0]
	}],
	"nodes":[{
		"name":"Handles",
		"children":[1,
		4,
		7,
		10]
	},
	{
		"name":"1",
		"children":[2,
		3]
	},
	{
		"name":"Small",
		"mesh":0
	},
	{
		"name":"Large",
		"mesh":1
	},
	{
		"name":"2",
		"children":[5,
		6]
	},
	{
		"name":"Large",
		"mesh":2
	},
	{
		"name":"Small",
		"mesh":3
	},
	{
		"name":"3",
		"children":[8,
		9]
	},
	{
		"name":"Small",
		"mesh":4
	},
	{
		"name":"Large",
		"mesh":5
	},
	{
		"name":"4",
		"children":[11,
		12]
	},
	{
		"name":"Large",
		"mesh":6
	},
	{
		"name":"Small",
		"mesh":7
	}],
	"accessors":[{
		"byteOffset":0,
		"bufferView":0,
		"count":1212,
		"type":"SCALAR",
		"componentType":5123,
		"min":[0],
		"max":[323]
	},
	{
		"byteOffset":0,
		"bufferView":1,
		"count":324,
		"type":"VEC3",
		"componentType":5126,
		"min":[-0.07620000094175339,
		-0.005080000031739473,
		-1.1102229998097382e-18],
		"max":[0.07620000094175339,
		0.005080000031739473,
		0.01728546805679798]
	},
	{
		"byteOffset":12,
		"bufferView":1,
		"count":324,
		"type":"VEC3",
		"componentType":5126,
		"min":[-0.9714162945747376,
		-0.9997431039810181,
		-0.9685074090957642],
		"max":[0.9714162945747376,
		0.9997431039810181,
		0.9987961649894714]
	},
	{
		"byteOffset":24,
		"bufferView":1,
		"count":324,
		"type":"VEC2",
		"componentType":5126,
		"min":[-0.025371747091412545,
		0.0],
		"max":[1.0255624055862427,
		1.0]
	},
	{
		"byteOffset":0,
		"bufferView":2,
		"count":1212,
		"type":"SCALAR",
		"componentType":5123,
		"min":[0],
		"max":[323]
	},
	{
		"byteOffset":0,
		"bufferView":3,
		"count":324,
		"type":"VEC3",
		"componentType":5126,
		"min":[-0.11429999768733978,
		-0.005080000031739473,
		-1.1102229998097382e-18],
		"max":[0.11429999768733978,
		0.005080000031739473,
		0.01728546805679798]
	},
	{
		"byteOffset":12,
		"bufferView":3,
		"count":324,
		"type":"VEC3",
		"componentType":5126,
		"min":[-0.9714154005050659,
		-0.9998920559883118,
		-0.9685074090957642],
		"max":[0.9714154601097107,
		0.9997431039810181,
		0.9982653260231018]
	},
	{
		"byteOffset":24,
		"bufferView":3,
		"count":324,
		"type":"VEC2",
		"componentType":5126,
		"min":[-0.025371748954057695,
		0.0],
		"max":[1.0255624055862427,
		1.0]
	},
	{
		"byteOffset":0,
		"bufferView":4,
		"count":852,
		"type":"SCALAR",
		"componentType":5123,
		"min":[0],
		"max":[351]
	},
	{
		"byteOffset":0,
		"bufferView":5,
		"count":352,
		"type":"VEC3",
		"componentType":5126,
		"min":[-0.11429999768733978,
		-0.0088900001719594,
		-1.387778801460961e-18],
		"max":[0.11429999768733978,
		0.0088900001719594,
		0.02443457953631878]
	},
	{
		"byteOffset":12,
		"bufferView":5,
		"count":352,
		"type":"VEC3",
		"componentType":5126,
		"min":[-1.0,
		-1.0,
		-1.0],
		"max":[1.0,
		1.0,
		1.0]
	},
	{
		"byteOffset":24,
		"bufferView":5,
		"count":352,
		"type":"VEC2",
		"componentType":5126,
		"min":[0.0,
		0.0],
		"max":[1.0,
		1.0]
	},
	{
		"byteOffset":0,
		"bufferView":6,
		"count":924,
		"type":"SCALAR",
		"componentType":5123,
		"min":[0],
		"max":[375]
	},
	{
		"byteOffset":0,
		"bufferView":7,
		"count":376,
		"type":"VEC3",
		"componentType":5126,
		"min":[-0.07620000094175339,
		-0.0088900001719594,
		-1.387778801460961e-18],
		"max":[0.07620000094175339,
		0.0088900001719594,
		0.0246274434030056]
	},
	{
		"byteOffset":12,
		"bufferView":7,
		"count":376,
		"type":"VEC3",
		"componentType":5126,
		"min":[-1.0,
		-1.0,
		-1.0],
		"max":[1.0,
		1.0,
		1.0]
	},
	{
		"byteOffset":24,
		"bufferView":7,
		"count":376,
		"type":"VEC2",
		"componentType":5126,
		"min":[0.0,
		0.0],
		"max":[1.0,
		1.0]
	},
	{
		"byteOffset":0,
		"bufferView":8,
		"count":420,
		"type":"SCALAR",
		"componentType":5123,
		"min":[0],
		"max":[177]
	},
	{
		"byteOffset":0,
		"bufferView":9,
		"count":178,
		"type":"VEC3",
		"componentType":5126,
		"min":[-0.07620000094175339,
		-0.01269999984651804,
		0.0],
		"max":[0.07620000094175339,
		0.01269999984651804,
		0.0246274434030056]
	},
	{
		"byteOffset":12,
		"bufferView":9,
		"count":178,
		"type":"VEC3",
		"componentType":5126,
		"min":[-1.0,
		-1.0,
		-1.0],
		"max":[1.0,
		1.0,
		1.0]
	},
	{
		"byteOffset":24,
		"bufferView":9,
		"count":178,
		"type":"VEC2",
		"componentType":5126,
		"min":[0.0,
		0.0],
		"max":[1.0,
		1.0]
	},
	{
		"byteOffset":0,
		"bufferView":10,
		"count":420,
		"type":"SCALAR",
		"componentType":5123,
		"min":[0],
		"max":[177]
	},
	{
		"byteOffset":0,
		"bufferView":11,
		"count":178,
		"type":"VEC3",
		"componentType":5126,
		"min":[-0.11429999768733978,
		-0.01269999984651804,
		0.0],
		"max":[0.11429999768733978,
		0.01269999984651804,
		0.0246274434030056]
	},
	{
		"byteOffset":12,
		"bufferView":11,
		"count":178,
		"type":"VEC3",
		"componentType":5126,
		"min":[-1.0,
		-1.0,
		-1.0],
		"max":[1.0,
		1.0,
		1.0]
	},
	{
		"byteOffset":24,
		"bufferView":11,
		"count":178,
		"type":"VEC2",
		"componentType":5126,
		"min":[0.0,
		0.0],
		"max":[1.0,
		1.0]
	},
	{
		"byteOffset":0,
		"bufferView":12,
		"count":1524,
		"type":"SCALAR",
		"componentType":5123,
		"min":[0],
		"max":[551]
	},
	{
		"byteOffset":0,
		"bufferView":13,
		"count":552,
		"type":"VEC3",
		"componentType":5126,
		"min":[-0.11429999768733978,
		-0.00634999992325902,
		-7.776506918345775e-19],
		"max":[0.11429999768733978,
		0.00634999992325902,
		0.02539999969303608]
	},
	{
		"byteOffset":12,
		"bufferView":13,
		"count":552,
		"type":"VEC3",
		"componentType":5126,
		"min":[-0.99921053647995,
		-1.0,
		-1.0],
		"max":[0.99921053647995,
		1.0,
		1.0]
	},
	{
		"byteOffset":24,
		"bufferView":13,
		"count":552,
		"type":"VEC2",
		"componentType":5126,
		"min":[0.0,
		0.0],
		"max":[1.0,
		1.0]
	},
	{
		"byteOffset":0,
		"bufferView":14,
		"count":1524,
		"type":"SCALAR",
		"componentType":5123,
		"min":[0],
		"max":[551]
	},
	{
		"byteOffset":0,
		"bufferView":15,
		"count":552,
		"type":"VEC3",
		"componentType":5126,
		"min":[-0.07620000094175339,
		-0.00634999992325902,
		-7.776506918345775e-19],
		"max":[0.07620000094175339,
		0.00634999992325902,
		0.02539999969303608]
	},
	{
		"byteOffset":12,
		"bufferView":15,
		"count":552,
		"type":"VEC3",
		"componentType":5126,
		"min":[-0.9996490478515625,
		-1.0,
		-1.0],
		"max":[0.9996490478515625,
		1.0,
		1.0]
	},
	{
		"byteOffset":24,
		"bufferView":15,
		"count":552,
		"type":"VEC2",
		"componentType":5126,
		"min":[0.0,
		0.0],
		"max":[1.0,
		1.0]
	}],
	"meshes":[{
		"name":"Small",
		"primitives":[{
			"attributes":{
				"POSITION":1,
				"NORMAL":2,
				"TEXCOORD_0":3
			},
			"indices":0,
			"material":0
		}]
	},
	{
		"name":"Large",
		"primitives":[{
			"attributes":{
				"POSITION":5,
				"NORMAL":6,
				"TEXCOORD_0":7
			},
			"indices":4,
			"material":0
		}]
	},
	{
		"name":"Large",
		"primitives":[{
			"attributes":{
				"POSITION":9,
				"NORMAL":10,
				"TEXCOORD_0":11
			},
			"indices":8,
			"material":0
		}]
	},
	{
		"name":"Small",
		"primitives":[{
			"attributes":{
				"POSITION":13,
				"NORMAL":14,
				"TEXCOORD_0":15
			},
			"indices":12,
			"material":0
		}]
	},
	{
		"name":"Small",
		"primitives":[{
			"attributes":{
				"POSITION":17,
				"NORMAL":18,
				"TEXCOORD_0":19
			},
			"indices":16,
			"material":0
		}]
	},
	{
		"name":"Large",
		"primitives":[{
			"attributes":{
				"POSITION":21,
				"NORMAL":22,
				"TEXCOORD_0":23
			},
			"indices":20,
			"material":0
		}]
	},
	{
		"name":"Large",
		"primitives":[{
			"attributes":{
				"POSITION":25,
				"NORMAL":26,
				"TEXCOORD_0":27
			},
			"indices":24,
			"material":0
		}]
	},
	{
		"name":"Small",
		"primitives":[{
			"attributes":{
				"POSITION":29,
				"NORMAL":30,
				"TEXCOORD_0":31
			},
			"indices":28,
			"material":0
		}]
	}],
	"buffers":[{
		"uri":"data:application/octet-stream;base64,",
		"byteLength":12792
	},
	{
		"uri":"data:application/octet-stream;base64,",
		"byteLength":12792
	},
	{
		"uri":"data:application/octet-stream;base64,",
		"byteLength":12968
	},
	{
		"uri":"data:application/octet-stream;base64,",
		"byteLength":13880
	},
	{
		"uri":"data:application/octet-stream;base64,",
		"byteLength":6536
	},
	{
		"uri":"data:application/octet-stream;base64,",
		"byteLength":6536
	},
	{
		"uri":"data:application/octet-stream;base64,",
		"byteLength":20712
	},
	{
		"uri":"data:application/octet-stream;base64,",
		"byteLength":20712
	}],
	"bufferViews":[{
		"buffer":0,
		"byteOffset":0,
		"byteLength":2424,
		"target":34963
	},
	{
		"buffer":0,
		"byteOffset":2424,
		"byteLength":10368,
		"target":34962,
		"byteStride":32
	},
	{
		"buffer":1,
		"byteOffset":0,
		"byteLength":2424,
		"target":34963
	},
	{
		"buffer":1,
		"byteOffset":2424,
		"byteLength":10368,
		"target":34962,
		"byteStride":32
	},
	{
		"buffer":2,
		"byteOffset":0,
		"byteLength":1704,
		"target":34963
	},
	{
		"buffer":2,
		"byteOffset":1704,
		"byteLength":11264,
		"target":34962,
		"byteStride":32
	},
	{
		"buffer":3,
		"byteOffset":0,
		"byteLength":1848,
		"target":34963
	},
	{
		"buffer":3,
		"byteOffset":1848,
		"byteLength":12032,
		"target":34962,
		"byteStride":32
	},
	{
		"buffer":4,
		"byteOffset":0,
		"byteLength":840,
		"target":34963
	},
	{
		"buffer":4,
		"byteOffset":840,
		"byteLength":5696,
		"target":34962,
		"byteStride":32
	},
	{
		"buffer":5,
		"byteOffset":0,
		"byteLength":840,
		"target":34963
	},
	{
		"buffer":5,
		"byteOffset":840,
		"byteLength":5696,
		"target":34962,
		"byteStride":32
	},
	{
		"buffer":6,
		"byteOffset":0,
		"byteLength":3048,
		"target":34963
	},
	{
		"buffer":6,
		"byteOffset":3048,
		"byteLength":17664,
		"target":34962,
		"byteStride":32
	},
	{
		"buffer":7,
		"byteOffset":0,
		"byteLength":3048,
		"target":34963
	},
	{
		"buffer":7,
		"byteOffset":3048,
		"byteLength":17664,
		"target":34962,
		"byteStride":32
	}],
	"materials":[{
		"pbrMetallicRoughness":{
			"baseColorFactor":[0.49,
			0.49,
			0.49,
			1.0],
			"metallicFactor":0.0,
			"roughnessFactor":0.27
		},
		"emissiveFactor":[0.0,
		0.0,
		0.0],
		"alphaMode":"OPAQUE",
		"doubleSided":false,
		"name":"handles"
	}]
}