{
	"asset":{
		"version":"2.0",
		"generator":"Created using the official Cinema 4D glTF Exporter 1.000x284978"
	},
	"scenes":[{
		"nodes":[0]
	}],
	"nodes":[{
		"name":"drawerboard",
		"children":[1,
		7]
	},
	{
		"name":"low",
		"children":[2,
		3,
		4,
		5,
		6]
	},
	{
		"name":"drawerPanele",
		"mesh":0
	},
	{
		"name":"drawerPaneld",
		"mesh":1
	},
	{
		"name":"drawerPanelc",
		"mesh":2
	},
	{
		"name":"drawerPanelb",
		"mesh":3
	},
	{
		"name":"drawerPanela",
		"mesh":4
	},
	{
		"name":"normal",
		"children":[8,
		9,
		10,
		11,
		12]
	},
	{
		"name":"drawerPanele",
		"mesh":5
	},
	{
		"name":"drawerPaneld",
		"mesh":6
	},
	{
		"name":"drawerPanelc",
		"mesh":7
	},
	{
		"name":"drawerPanelb",
		"mesh":8
	},
	{
		"name":"drawerPanela",
		"mesh":9
	}],
	"meshes":[{
		"name":"drawerPanele",
		"primitives":[{
			"attributes":{
				"POSITION":1,
				"NORMAL":2,
				"TEXCOORD_0":3
			},
			"indices":0,
			"material":0
		}]
	},
	{
		"name":"drawerPaneld",
		"primitives":[{
			"attributes":{
				"POSITION":5,
				"NORMAL":6,
				"TEXCOORD_0":7
			},
			"indices":4,
			"material":0
		}]
	},
	{
		"name":"drawerPanelc",
		"primitives":[{
			"attributes":{
				"POSITION":9,
				"NORMAL":10,
				"TEXCOORD_0":11
			},
			"indices":8,
			"material":0
		}]
	},
	{
		"name":"drawerPanelb",
		"primitives":[{
			"attributes":{
				"POSITION":13,
				"NORMAL":14,
				"TEXCOORD_0":15
			},
			"indices":12,
			"material":0
		}]
	},
	{
		"name":"drawerPanela",
		"primitives":[{
			"attributes":{
				"POSITION":17,
				"NORMAL":18,
				"TEXCOORD_0":19
			},
			"indices":16,
			"material":0
		}]
	},
	{
		"name":"drawerPanele",
		"primitives":[{
			"attributes":{
				"POSITION":21,
				"NORMAL":22,
				"TEXCOORD_0":23
			},
			"indices":20,
			"material":0
		}]
	},
	{
		"name":"drawerPaneld",
		"primitives":[{
			"attributes":{
				"POSITION":25,
				"NORMAL":26,
				"TEXCOORD_0":27
			},
			"indices":24,
			"material":0
		}]
	},
	{
		"name":"drawerPanelc",
		"primitives":[{
			"attributes":{
				"POSITION":29,
				"NORMAL":30,
				"TEXCOORD_0":31
			},
			"indices":28,
			"material":0
		}]
	},
	{
		"name":"drawerPanelb",
		"primitives":[{
			"attributes":{
				"POSITION":33,
				"NORMAL":34,
				"TEXCOORD_0":35
			},
			"indices":32,
			"material":0
		}]
	},
	{
		"name":"drawerPanela",
		"primitives":[{
			"attributes":{
				"POSITION":37,
				"NORMAL":38,
				"TEXCOORD_0":39
			},
			"indices":36,
			"material":0
		}]
	}],
	"accessors":[{
		"bufferView":0,
		"type":"SCALAR",
		"componentType":5123,
		"count":1038,
		"byteOffset":0,
		"min":[0],
		"max":[385]
	},
	{
		"bufferView":1,
		"type":"VEC3",
		"componentType":5126,
		"count":386,
		"byteOffset":0,
		"min":[-0.9017000198364258,
		-0.11303000152111054,
		-0.01269999984651804],
		"max":[0.9017000198364258,
		0.11303000152111054,
		0.01269999984651804]
	},
	{
		"bufferView":1,
		"type":"VEC3",
		"componentType":5126,
		"count":386,
		"byteOffset":12,
		"min":[-1.0,
		-1.0,
		-1.0],
		"max":[1.0,
		1.0,
		1.0]
	},
	{
		"bufferView":1,
		"type":"VEC2",
		"componentType":5126,
		"count":386,
		"byteOffset":24,
		"min":[0.36728501319885256,
		0.049149997532367709],
		"max":[0.6327149868011475,
		0.9508500099182129]
	},
	{
		"bufferView":2,
		"type":"SCALAR",
		"componentType":5123,
		"count":1038,
		"byteOffset":0,
		"min":[0],
		"max":[385]
	},
	{
		"bufferView":3,
		"type":"VEC3",
		"componentType":5126,
		"count":386,
		"byteOffset":0,
		"min":[-0.8636000156402588,
		-0.11303000152111054,
		-0.01269999984651804],
		"max":[0.8636000156402588,
		0.11303000152111054,
		0.01269999984651804]
	},
	{
		"bufferView":3,
		"type":"VEC3",
		"componentType":5126,
		"count":386,
		"byteOffset":12,
		"min":[-1.0,
		-1.0,
		-1.0],
		"max":[1.0,
		1.0,
		1.0]
	},
	{
		"bufferView":3,
		"type":"VEC2",
		"componentType":5126,
		"count":386,
		"byteOffset":24,
		"min":[0.36728501319885256,
		0.0681999921798706],
		"max":[0.6327149868011475,
		0.9318000078201294]
	},
	{
		"bufferView":4,
		"type":"SCALAR",
		"componentType":5123,
		"count":1032,
		"byteOffset":0,
		"min":[0],
		"max":[379]
	},
	{
		"bufferView":5,
		"type":"VEC3",
		"componentType":5126,
		"count":380,
		"byteOffset":0,
		"min":[-0.8255000114440918,
		-0.11303000152111054,
		-0.01269999984651804],
		"max":[0.8255000114440918,
		0.11303000152111054,
		0.01269999984651804]
	},
	{
		"bufferView":5,
		"type":"VEC3",
		"componentType":5126,
		"count":380,
		"byteOffset":12,
		"min":[-1.0,
		-1.0,
		-1.0],
		"max":[1.0,
		1.0,
		1.0]
	},
	{
		"bufferView":5,
		"type":"VEC2",
		"componentType":5126,
		"count":380,
		"byteOffset":24,
		"min":[0.36728501319885256,
		0.0872499942779541],
		"max":[0.6327149868011475,
		0.9127500057220459]
	},
	{
		"bufferView":6,
		"type":"SCALAR",
		"componentType":5123,
		"count":1044,
		"byteOffset":0,
		"min":[0],
		"max":[374]
	},
	{
		"bufferView":7,
		"type":"VEC3",
		"componentType":5126,
		"count":375,
		"byteOffset":0,
		"min":[-0.7874000072479248,
		-0.11303000152111054,
		-0.01269999984651804],
		"max":[0.7874000072479248,
		0.11303000152111054,
		0.01269999984651804]
	},
	{
		"bufferView":7,
		"type":"VEC3",
		"componentType":5126,
		"count":375,
		"byteOffset":12,
		"min":[-1.0,
		-1.0,
		-1.0],
		"max":[1.0,
		1.0,
		1.0]
	},
	{
		"bufferView":7,
		"type":"VEC2",
		"componentType":5126,
		"count":375,
		"byteOffset":24,
		"min":[0.36728501319885256,
		0.1062999963760376],
		"max":[0.6327149868011475,
		0.8937000036239624]
	},
	{
		"bufferView":8,
		"type":"SCALAR",
		"componentType":5123,
		"count":1032,
		"byteOffset":0,
		"min":[0],
		"max":[379]
	},
	{
		"bufferView":9,
		"type":"VEC3",
		"componentType":5126,
		"count":380,
		"byteOffset":0,
		"min":[-0.7493000030517578,
		-0.11303000152111054,
		-0.01269999984651804],
		"max":[0.7493000030517578,
		0.11303000152111054,
		0.01269999984651804]
	},
	{
		"bufferView":9,
		"type":"VEC3",
		"componentType":5126,
		"count":380,
		"byteOffset":12,
		"min":[-1.0,
		-1.0,
		-1.0],
		"max":[1.0,
		1.0,
		1.0]
	},
	{
		"bufferView":9,
		"type":"VEC2",
		"componentType":5126,
		"count":380,
		"byteOffset":24,
		"min":[0.36728501319885256,
		0.1253499984741211],
		"max":[0.6327149868011475,
		0.8746500015258789]
	},
	{
		"bufferView":10,
		"type":"SCALAR",
		"componentType":5123,
		"count":1032,
		"byteOffset":0,
		"min":[0],
		"max":[379]
	},
	{
		"bufferView":11,
		"type":"VEC3",
		"componentType":5126,
		"count":380,
		"byteOffset":0,
		"min":[-0.9017000198364258,
		-0.18922999501228333,
		-0.01269999984651804],
		"max":[0.9017000198364258,
		0.18922999501228333,
		0.01269999984651804]
	},
	{
		"bufferView":11,
		"type":"VEC3",
		"componentType":5126,
		"count":380,
		"byteOffset":12,
		"min":[-1.0,
		-1.0,
		-1.0],
		"max":[1.0,
		1.0,
		1.0]
	},
	{
		"bufferView":11,
		"type":"VEC2",
		"componentType":5126,
		"count":380,
		"byteOffset":24,
		"min":[0.36728501319885256,
		0.049149997532367709],
		"max":[0.6327149868011475,
		0.9508500099182129]
	},
	{
		"bufferView":12,
		"type":"SCALAR",
		"componentType":5123,
		"count":1038,
		"byteOffset":0,
		"min":[0],
		"max":[385]
	},
	{
		"bufferView":13,
		"type":"VEC3",
		"componentType":5126,
		"count":386,
		"byteOffset":0,
		"min":[-0.8636000156402588,
		-0.18922999501228333,
		-0.01269999984651804],
		"max":[0.8636000156402588,
		0.18922999501228333,
		0.01269999984651804]
	},
	{
		"bufferView":13,
		"type":"VEC3",
		"componentType":5126,
		"count":386,
		"byteOffset":12,
		"min":[-1.0,
		-1.0,
		-1.0],
		"max":[1.0,
		1.0,
		1.0]
	},
	{
		"bufferView":13,
		"type":"VEC2",
		"componentType":5126,
		"count":386,
		"byteOffset":24,
		"min":[0.36728501319885256,
		0.0681999921798706],
		"max":[0.6327149868011475,
		0.9318000078201294]
	},
	{
		"bufferView":14,
		"type":"SCALAR",
		"componentType":5123,
		"count":1032,
		"byteOffset":0,
		"min":[0],
		"max":[379]
	},
	{
		"bufferView":15,
		"type":"VEC3",
		"componentType":5126,
		"count":380,
		"byteOffset":0,
		"min":[-0.8255000114440918,
		-0.18922999501228333,
		-0.01269999984651804],
		"max":[0.8255000114440918,
		0.18922999501228333,
		0.01269999984651804]
	},
	{
		"bufferView":15,
		"type":"VEC3",
		"componentType":5126,
		"count":380,
		"byteOffset":12,
		"min":[-1.0,
		-1.0,
		-1.0],
		"max":[1.0,
		1.0,
		1.0]
	},
	{
		"bufferView":15,
		"type":"VEC2",
		"componentType":5126,
		"count":380,
		"byteOffset":24,
		"min":[0.36728501319885256,
		0.0872499942779541],
		"max":[0.6327149868011475,
		0.9127500057220459]
	},
	{
		"bufferView":16,
		"type":"SCALAR",
		"componentType":5123,
		"count":1032,
		"byteOffset":0,
		"min":[0],
		"max":[379]
	},
	{
		"bufferView":17,
		"type":"VEC3",
		"componentType":5126,
		"count":380,
		"byteOffset":0,
		"min":[-0.7874000072479248,
		-0.18922999501228333,
		-0.01269999984651804],
		"max":[0.7874000072479248,
		0.18922999501228333,
		0.01269999984651804]
	},
	{
		"bufferView":17,
		"type":"VEC3",
		"componentType":5126,
		"count":380,
		"byteOffset":12,
		"min":[-1.0,
		-1.0,
		-1.0],
		"max":[1.0,
		1.0,
		1.0]
	},
	{
		"bufferView":17,
		"type":"VEC2",
		"componentType":5126,
		"count":380,
		"byteOffset":24,
		"min":[0.36728501319885256,
		0.1062999963760376],
		"max":[0.6327149868011475,
		0.8937000036239624]
	},
	{
		"bufferView":18,
		"type":"SCALAR",
		"componentType":5123,
		"count":1032,
		"byteOffset":0,
		"min":[0],
		"max":[379]
	},
	{
		"bufferView":19,
		"type":"VEC3",
		"componentType":5126,
		"count":380,
		"byteOffset":0,
		"min":[-0.7493000030517578,
		-0.18922999501228333,
		-0.01269999984651804],
		"max":[0.7493000030517578,
		0.18922999501228333,
		0.01269999984651804]
	},
	{
		"bufferView":19,
		"type":"VEC3",
		"componentType":5126,
		"count":380,
		"byteOffset":12,
		"min":[-1.0,
		-1.0,
		-1.0],
		"max":[1.0,
		1.0,
		1.0]
	},
	{
		"bufferView":19,
		"type":"VEC2",
		"componentType":5126,
		"count":380,
		"byteOffset":24,
		"min":[0.36728501319885256,
		0.1253499984741211],
		"max":[0.6327149868011475,
		0.8746500015258789]
	}],
	"bufferViews":[{
		"target":34963,
		"buffer":0,
		"byteOffset":0,
		"byteLength":2076
	},
	{
		"target":34962,
		"buffer":0,
		"byteOffset":2076,
		"byteLength":12352,
		"byteStride":32
	},
	{
		"target":34963,
		"buffer":1,
		"byteOffset":0,
		"byteLength":2076
	},
	{
		"target":34962,
		"buffer":1,
		"byteOffset":2076,
		"byteLength":12352,
		"byteStride":32
	},
	{
		"target":34963,
		"buffer":2,
		"byteOffset":0,
		"byteLength":2064
	},
	{
		"target":34962,
		"buffer":2,
		"byteOffset":2064,
		"byteLength":12160,
		"byteStride":32
	},
	{
		"target":34963,
		"buffer":3,
		"byteOffset":0,
		"byteLength":2088
	},
	{
		"target":34962,
		"buffer":3,
		"byteOffset":2088,
		"byteLength":12000,
		"byteStride":32
	},
	{
		"target":34963,
		"buffer":4,
		"byteOffset":0,
		"byteLength":2064
	},
	{
		"target":34962,
		"buffer":4,
		"byteOffset":2064,
		"byteLength":12160,
		"byteStride":32
	},
	{
		"target":34963,
		"buffer":5,
		"byteOffset":0,
		"byteLength":2064
	},
	{
		"target":34962,
		"buffer":5,
		"byteOffset":2064,
		"byteLength":12160,
		"byteStride":32
	},
	{
		"target":34963,
		"buffer":6,
		"byteOffset":0,
		"byteLength":2076
	},
	{
		"target":34962,
		"buffer":6,
		"byteOffset":2076,
		"byteLength":12352,
		"byteStride":32
	},
	{
		"target":34963,
		"buffer":7,
		"byteOffset":0,
		"byteLength":2064
	},
	{
		"target":34962,
		"buffer":7,
		"byteOffset":2064,
		"byteLength":12160,
		"byteStride":32
	},
	{
		"target":34963,
		"buffer":8,
		"byteOffset":0,
		"byteLength":2064
	},
	{
		"target":34962,
		"buffer":8,
		"byteOffset":2064,
		"byteLength":12160,
		"byteStride":32
	},
	{
		"target":34963,
		"buffer":9,
		"byteOffset":0,
		"byteLength":2064
	},
	{
		"target":34962,
		"buffer":9,
		"byteOffset":2064,
		"byteLength":12160,
		"byteStride":32
	}],
	"buffers":[{
		"uri":"data:application/octet-stream;base64,",
		"byteLength":14428
	},
	{
		"uri":"data:application/octet-stream;base64,",
		"byteLength":14428
	},
	{
		"uri":"data:application/octet-stream;base64,",
		"byteLength":14224
	},
	{
		"uri":"data:application/octet-stream;base64,",
		"byteLength":14088
	},
	{
		"uri":"data:application/octet-stream;base64,",
		"byteLength":14224
	},
	{
		"uri":"data:application/octet-stream;base64,",
		"byteLength":14224
	},
	{
		"uri":"data:application/octet-stream;base64,",
		"byteLength":14428
	},
	{
		"uri":"data:application/octet-stream;base64,",
		"byteLength":14224
	},
	{
		"uri":"data:application/octet-stream;base64,",
		"byteLength":14224
	},
	{
		"uri":"data:application/octet-stream;base64,",
		"byteLength":14224
	}],
	"images":[{
		"uri":"data:image/jpeg;base64,"
	}],
	"samplers":[{
		"magFilter":9729,
		"minFilter":9729,
		"wrapS":10497,
		"wrapT":10497
	}],
	"textures":[{
		"sampler":0,
		"source":0
	}],
	"materials":[{
		"pbrMetallicRoughness":{
			"baseColorTexture":{
				"index":0
			},
			"baseColorFactor":[1.0,
			1.0,
			1.0,
			1.0],
			"metallicFactor":1.0,
			"roughnessFactor":1.0
		},
		"emissiveFactor":[0.0,
		0.0,
		0.0],
		"alphaMode":"OPAQUE",
		"doubleSided":false,
		"name":"drawer_board"
	}]
}