{
	"asset":{
		"version":"2.0",
		"generator":"Created using the official Cinema 4D glTF Exporter 1.000x284978"
	},
	"buffers":[{
		"uri":"data:application/octet-stream;base64,",
		"byteLength":11000
	}],
	"bufferViews":[{
		"buffer":0,
		"target":34963,
		"byteOffset":0,
		"byteLength":1656
	},
	{
		"buffer":0,
		"target":34962,
		"byteOffset":1656,
		"byteLength":9344,
		"byteStride":32
	}],
	"scenes":[{
		"nodes":[0]
	}],
	"nodes":[{
		"name":"drawerhandle",
		"mesh":0
	}],
	"meshes":[{
		"name":"drawerhandle",
		"primitives":[{
			"attributes":{
				"POSITION":1,
				"NORMAL":2,
				"TEXCOORD_0":3
			},
			"indices":0
		}]
	}],
	"accessors":[{
		"bufferView":0,
		"max":[291],
		"type":"SCALAR",
		"byteOffset":0,
		"componentType":5123,
		"count":828,
		"min":[0]
	},
	{
		"bufferView":1,
		"max":[0.11429999768733978,
		0.038100000470876697,
		0.06350000202655792],
		"type":"VEC3",
		"byteOffset":0,
		"componentType":5126,
		"count":292,
		"min":[-0.11429999768733978,
		-0.038100000470876697,
		-0.06350000202655792]
	},
	{
		"bufferView":1,
		"max":[0.9988360404968262,
		1.0,
		1.0],
		"type":"VEC3",
		"byteOffset":12,
		"componentType":5126,
		"count":292,
		"min":[-0.9988360404968262,
		-1.0,
		-1.0]
	},
	{
		"bufferView":1,
		"max":[1.0,
		1.0],
		"type":"VEC2",
		"byteOffset":24,
		"componentType":5126,
		"count":292,
		"min":[0.0,
		0.0]
	}]
}