{
	"asset":{
		"version":"2.0",
		"generator":"Created using the official Cinema 4D glTF Exporter 1.000x284978"
	},
	"buffers":[{
		"uri":"data:application/octet-stream;base64,",
		"byteLength":840
	}],
	"bufferViews":[{
		"buffer":0,
		"target":34963,
		"byteOffset":0,
		"byteLength":72
	},
	{
		"buffer":0,
		"target":34962,
		"byteOffset":72,
		"byteLength":768,
		"byteStride":32
	}],
	"scenes":[{
		"nodes":[0]
	}],
	"nodes":[{
		"name":"sideboard",
		"children":[1]
	},
	{
		"name":"sideboard",
		"mesh":0
	}],
	"meshes":[{
		"name":"sideboard",
		"primitives":[{
			"attributes":{
				"POSITION":1,
				"NORMAL":2,
				"TEXCOORD_0":3
			},
			"indices":0,
			"material":0
		}]
	}],
	"accessors":[{
		"bufferView":0,
		"max":[23],
		"type":"SCALAR",
		"byteOffset":0,
		"componentType":5123,
		"count":36,
		"min":[0]
	},
	{
		"bufferView":1,
		"max":[0.5,
		0.5,
		0.5],
		"type":"VEC3",
		"byteOffset":0,
		"componentType":5126,
		"count":24,
		"min":[-0.5,
		-0.5,
		-0.5]
	},
	{
		"bufferView":1,
		"max":[1.0,
		1.0,
		1.0],
		"type":"VEC3",
		"byteOffset":12,
		"componentType":5126,
		"count":24,
		"min":[-1.0,
		-1.0,
		-1.0]
	},
	{
		"bufferView":1,
		"max":[1.0,
		0.875],
		"type":"VEC2",
		"byteOffset":24,
		"componentType":5126,
		"count":24,
		"min":[0.0,
		0.125]
	}],
	"images":[{
		"uri":"data:image/jpeg;base64,"
	}],
	"samplers":[{
		"magFilter":9729,
		"minFilter":9729,
		"wrapS":10497,
		"wrapT":10497
	}],
	"textures":[{
		"sampler":0,
		"source":0
	}],
	"materials":[{
		"name":"sideboard_wood",
		"pbrMetallicRoughness":{
			"baseColorTexture":{
				"index":0
			},
			"baseColorFactor":[1.0,
			1.0,
			1.0,
			1.0],
			"metallicFactor":0.0,
			"roughnessFactor":0.5
		},
		"emissiveFactor":[0.0,
		0.0,
		0.0],
		"alphaMode":"OPAQUE",
		"doubleSided":false
	}]
}