{
	"accessors":[{
		"count":2304,
		"bufferView":0,
		"type":"SCALAR",
		"componentType":5123,
		"byteOffset":0,
		"min":[0],
		"max":[480]
	},
	{
		"count":481,
		"bufferView":1,
		"type":"VEC3",
		"componentType":5126,
		"byteOffset":0,
		"min":[-0.45611345767974856,
		0.08768397569656372,
		-0.5],
		"max":[0.46156927943229678,
		0.6774437427520752,
		0.48391053080558779]
	},
	{
		"count":481,
		"bufferView":1,
		"type":"VEC3",
		"componentType":5126,
		"byteOffset":12,
		"min":[-1.0,
		-1.0,
		-1.0],
		"max":[1.0,
		1.0,
		1.0]
	},
	{
		"count":481,
		"bufferView":1,
		"type":"VEC2",
		"componentType":5126,
		"byteOffset":24,
		"min":[0.004059576895087957,
		0.00405957642942667],
		"max":[0.8774906992912293,
		0.9959404468536377]
	},
	{
		"count":19008,
		"bufferView":2,
		"type":"SCALAR",
		"componentType":5123,
		"byteOffset":0,
		"min":[0],
		"max":[3988]
	},
	{
		"count":3989,
		"bufferView":3,
		"type":"VEC3",
		"componentType":5126,
		"byteOffset":0,
		"min":[-0.5,
		2.957924458210263e-18,
		-0.401419460773468],
		"max":[0.5,
		1.0,
		0.5]
	},
	{
		"count":3989,
		"bufferView":3,
		"type":"VEC3",
		"componentType":5126,
		"byteOffset":12,
		"min":[-0.9999973177909851,
		-0.9998607635498047,
		-1.0],
		"max":[0.999996542930603,
		0.9998779296875,
		1.0]
	},
	{
		"count":3989,
		"bufferView":3,
		"type":"VEC2",
		"componentType":5126,
		"byteOffset":24,
		"min":[0.004042886197566986,
		0.004042886197566986],
		"max":[0.9959571361541748,
		0.8002663850784302]
	}],
	"asset":{
		"version":"2.0",
		"generator":"Created using the official Cinema 4D glTF Exporter 1.000x284978"
	},
	"scenes":[{
		"nodes":[0]
	}],
	"buffers":[{
		"uri":"data:application/octet-stream;base64,",
		"byteLength":20000
	},
	{
		"uri":"data:application/octet-stream;base64,",
		"byteLength":165664
	}],
	"nodes":[{
		"name":"matress",
		"mesh":0,
		"children":[1]
	},
	{
		"name":"blanket",
		"mesh":1
	}],
	"meshes":[{
		"name":"matress",
		"primitives":[{
			"attributes":{
				"POSITION":1,
				"NORMAL":2,
				"TEXCOORD_0":3
			},
			"indices":0,
			"material":0
		}]
	},
	{
		"name":"blanket",
		"primitives":[{
			"attributes":{
				"POSITION":5,
				"NORMAL":6,
				"TEXCOORD_0":7
			},
			"indices":4,
			"material":1
		}]
	}],
	"bufferViews":[{
		"buffer":0,
		"byteOffset":0,
		"byteLength":4608,
		"target":34963
	},
	{
		"buffer":0,
		"byteOffset":4608,
		"byteLength":15392,
		"target":34962,
		"byteStride":32
	},
	{
		"buffer":1,
		"byteOffset":0,
		"byteLength":38016,
		"target":34963
	},
	{
		"buffer":1,
		"byteOffset":38016,
		"byteLength":127648,
		"target":34962,
		"byteStride":32
	}],
	"images":[{
		"uri":"data:image/jpeg;base64,"
	}],
	"samplers":[{
		"magFilter":9729,
		"minFilter":9729,
		"wrapS":10497,
		"wrapT":10497
	},
	{
		"magFilter":9729,
		"minFilter":9729,
		"wrapS":10497,
		"wrapT":10497
	}],
	"textures":[{
		"sampler":0,
		"source":0
	},
	{
		"sampler":1,
		"source":0
	}],
	"materials":[{
		"pbrMetallicRoughness":{
			"baseColorFactor":[0.9685999751091003,
			0.9685999751091003,
			0.9685999751091003,
			1.0],
			"metallicFactor":1.0,
			"roughnessFactor":0.7400000095367432
		},
		"name":"matress",
		"normalTexture":{
			"index":0,
			"scale":0.2
		},
		"emissiveFactor":[0.0,
		0.0,
		0.0],
		"alphaMode":"OPAQUE",
		"doubleSided":false
	},
	{
		"pbrMetallicRoughness":{
			"baseColorFactor":[0.9685999751091003,
			0.9685999751091003,
			0.9685999751091003,
			1.0],
			"metallicFactor":1.0,
			"roughnessFactor":0.7400000095367432
		},
		"name":"blanket",
		"normalTexture":{
			"index":1,
			"scale":0.2
		},
		"emissiveFactor":[0.0,
		0.0,
		0.0],
		"alphaMode":"OPAQUE",
		"doubleSided":false
	}]
}