{
	"asset":{
		"version":"2.0",
		"generator":"Created using the official Cinema 4D glTF Exporter 1.000x284978"
	},
	"buffers":[{
		"uri":"data:application/octet-stream;base64,",
		"byteLength":20224
	},
	{
		"uri":"data:application/octet-stream;base64,",
		"byteLength":161856
	}],
	"scenes":[{
		"nodes":[0]
	}],
	"nodes":[{
		"name":"matress",
		"children":[1,
		2]
	},
	{
		"name":"matress-matress",
		"mesh":0
	},
	{
		"name":"matress-blanket",
		"mesh":1
	}],
	"meshes":[{
		"name":"matress-matress",
		"primitives":[{
			"attributes":{
				"POSITION":1,
				"NORMAL":2,
				"TEXCOORD_0":3
			},
			"indices":0,
			"material":0
		}]
	},
	{
		"name":"matress-blanket",
		"primitives":[{
			"attributes":{
				"POSITION":5,
				"NORMAL":6,
				"TEXCOORD_0":7
			},
			"indices":4,
			"material":1
		}]
	}],
	"textures":[{
		"sampler":0,
		"source":0
	}],
	"accessors":[{
		"bufferView":0,
		"type":"SCALAR",
		"componentType":5123,
		"count":2304,
		"byteOffset":0,
		"min":[0],
		"max":[487]
	},
	{
		"bufferView":1,
		"type":"VEC3",
		"componentType":5126,
		"count":488,
		"byteOffset":0,
		"min":[-0.45611345767974856,
		0.08768397569656372,
		-0.5],
		"max":[0.46156927943229678,
		0.6774437427520752,
		0.48391053080558779]
	},
	{
		"bufferView":1,
		"type":"VEC3",
		"componentType":5126,
		"count":488,
		"byteOffset":12,
		"min":[-1.0,
		-1.0,
		-1.0],
		"max":[1.0,
		1.0,
		1.0]
	},
	{
		"bufferView":1,
		"type":"VEC2",
		"componentType":5126,
		"count":488,
		"byteOffset":24,
		"min":[-140.55130004882813,
		3.3190999031066896],
		"max":[141.55130004882813,
		137.25628662109376]
	},
	{
		"bufferView":2,
		"type":"SCALAR",
		"componentType":5123,
		"count":19008,
		"byteOffset":0,
		"min":[0],
		"max":[3869]
	},
	{
		"bufferView":3,
		"type":"VEC3",
		"componentType":5126,
		"count":3870,
		"byteOffset":0,
		"min":[-0.5,
		2.957924458210263e-18,
		-0.401419460773468],
		"max":[0.5,
		1.0,
		0.5]
	},
	{
		"bufferView":3,
		"type":"VEC3",
		"componentType":5126,
		"count":3870,
		"byteOffset":12,
		"min":[-0.9999688267707825,
		-0.9998750686645508,
		-1.0],
		"max":[0.9999688267707825,
		0.9998750686645508,
		1.0]
	},
	{
		"bufferView":3,
		"type":"VEC2",
		"componentType":5126,
		"count":3870,
		"byteOffset":24,
		"min":[0.0018859675619751216,
		0.00027520133880898356],
		"max":[6.642243385314941,
		4.9861955642700199]
	}],
	"bufferViews":[{
		"buffer":0,
		"byteOffset":0,
		"byteLength":4608,
		"target":34963
	},
	{
		"buffer":0,
		"byteOffset":4608,
		"byteLength":15616,
		"target":34962,
		"byteStride":32
	},
	{
		"buffer":1,
		"byteOffset":0,
		"byteLength":38016,
		"target":34963
	},
	{
		"buffer":1,
		"byteOffset":38016,
		"byteLength":123840,
		"target":34962,
		"byteStride":32
	}],
	"images":[{
		"uri":"data:image/jpeg;base64,"
	}],
	"samplers":[{
		"magFilter":9729,
		"minFilter":9729,
		"wrapS":10497,
		"wrapT":10497
	}],
	"materials":[{
		"pbrMetallicRoughness":{
			"baseColorFactor":[0.73,
			0.73,
			0.73,
			1.0],
			"metallicFactor":1.0,
			"roughnessFactor":1.0
		},
		"emissiveFactor":[0.0,
		0.0,
		0.0],
		"alphaMode":"OPAQUE",
		"doubleSided":false,
		"name":"matress"
	},
	{
		"pbrMetallicRoughness":{
			"baseColorFactor":[0.9685999751091003,
			0.9685999751091003,
			0.9685999751091003,
			1.0],
			"metallicFactor":1.0,
			"roughnessFactor":0.7400000095367432
		},
		"normalTexture":{
			"index":0,
			"scale":0.2
		},
		"emissiveFactor":[0.0,
		0.0,
		0.0],
		"alphaMode":"OPAQUE",
		"doubleSided":false,
		"name":"blanket"
	}]
}