{
	"asset":{
		"version":"2.0",
		"generator":"Created using the official Cinema 4D glTF Exporter 1.000x284978"
	},
	"scenes":[{
		"nodes":[0]
	}],
	"nodes":[{
		"name":"lockerkey",
		"children":[1]
	},
	{
		"name":"lockerkey",
		"children":[2,
		3,
		4]
	},
	{
		"name":"lockerkey-lockbodycolor",
		"mesh":0
	},
	{
		"name":"lockerkey-lockbodycolor",
		"mesh":1
	},
	{
		"name":"lockerkey-lockkey",
		"mesh":2
	}],
	"meshes":[{
		"name":"lockerkey-lockbodycolor",
		"primitives":[{
			"attributes":{
				"POSITION":1,
				"NORMAL":2,
				"TEXCOORD_0":3
			},
			"indices":0,
			"material":0
		}]
	},
	{
		"name":"lockerkey-lockbodycolor",
		"primitives":[{
			"attributes":{
				"POSITION":5,
				"NORMAL":6,
				"TEXCOORD_0":7
			},
			"indices":4,
			"material":0
		}]
	},
	{
		"name":"lockerkey-lockkey",
		"primitives":[{
			"attributes":{
				"POSITION":9,
				"NORMAL":10,
				"TEXCOORD_0":11
			},
			"indices":8,
			"material":1
		}]
	}],
	"accessors":[{
		"count":23484,
		"bufferView":0,
		"type":"SCALAR",
		"byteOffset":0,
		"componentType":5123,
		"min":[0],
		"max":[7032]
	},
	{
		"count":7033,
		"bufferView":1,
		"type":"VEC3",
		"byteOffset":0,
		"componentType":5126,
		"min":[-0.019068781286478044,
		-0.062313590198755267,
		-0.03401438891887665],
		"max":[0.007027203682810068,
		0.010396515019237996,
		0.019020527601242067]
	},
	{
		"count":7033,
		"bufferView":1,
		"type":"VEC3",
		"byteOffset":12,
		"componentType":5126,
		"min":[-1.0,
		-1.0,
		-1.0],
		"max":[1.0,
		1.0,
		1.0]
	},
	{
		"count":7033,
		"bufferView":1,
		"type":"VEC2",
		"byteOffset":24,
		"componentType":5126,
		"min":[0.0,
		1.0],
		"max":[0.0,
		1.0]
	},
	{
		"count":972,
		"bufferView":2,
		"type":"SCALAR",
		"byteOffset":0,
		"componentType":5123,
		"min":[0],
		"max":[367]
	},
	{
		"count":368,
		"bufferView":3,
		"type":"VEC3",
		"byteOffset":0,
		"componentType":5126,
		"min":[-0.019531309604644777,
		-0.01691460981965065,
		0.022224999964237214],
		"max":[0.019531309604644777,
		0.03833437338471413,
		0.03531477227807045]
	},
	{
		"count":368,
		"bufferView":3,
		"type":"VEC3",
		"byteOffset":12,
		"componentType":5126,
		"min":[-1.0,
		-1.0,
		-1.0],
		"max":[1.0,
		1.0,
		1.0]
	},
	{
		"count":368,
		"bufferView":3,
		"type":"VEC2",
		"byteOffset":24,
		"componentType":5126,
		"min":[0.0,
		0.0],
		"max":[1.0,
		1.0]
	},
	{
		"count":1008,
		"bufferView":4,
		"type":"SCALAR",
		"byteOffset":0,
		"componentType":5123,
		"min":[0],
		"max":[241]
	},
	{
		"count":242,
		"bufferView":5,
		"type":"VEC3",
		"byteOffset":0,
		"componentType":5126,
		"min":[-0.013763206079602242,
		-0.013763206079602242,
		-0.004930457565933466],
		"max":[0.013763206079602242,
		0.013763206079602242,
		0.030101047828793527]
	},
	{
		"count":242,
		"bufferView":5,
		"type":"VEC3",
		"byteOffset":12,
		"componentType":5126,
		"min":[-1.0,
		-1.0,
		-1.0],
		"max":[1.0,
		1.0,
		1.0]
	},
	{
		"count":242,
		"bufferView":5,
		"type":"VEC2",
		"byteOffset":24,
		"componentType":5126,
		"min":[0.0,
		0.0],
		"max":[1.0,
		1.0]
	}],
	"bufferViews":[{
		"buffer":0,
		"byteLength":46968,
		"byteOffset":0,
		"target":34963
	},
	{
		"buffer":0,
		"byteLength":225056,
		"byteOffset":46968,
		"target":34962,
		"byteStride":32
	},
	{
		"buffer":1,
		"byteLength":1944,
		"byteOffset":0,
		"target":34963
	},
	{
		"buffer":1,
		"byteLength":11776,
		"byteOffset":1944,
		"target":34962,
		"byteStride":32
	},
	{
		"buffer":2,
		"byteLength":2016,
		"byteOffset":0,
		"target":34963
	},
	{
		"buffer":2,
		"byteLength":7744,
		"byteOffset":2016,
		"target":34962,
		"byteStride":32
	}],
	"buffers":[{
		"uri":"data:application/octet-stream;base64,",
		"byteLength":272024
	},
	{
		"uri":"data:application/octet-stream;base64,",
		"byteLength":13720
	},
	{
		"uri":"data:application/octet-stream;base64,",
		"byteLength":9760
	}],
	"images":[{
		"uri":"data:image/jpeg;base64,"
	},
	{
		"uri":"data:image/jpeg;base64,"
	}],
	"samplers":[{
		"magFilter":9729,
		"minFilter":9729,
		"wrapS":10497,
		"wrapT":10497
	},
	{
		"magFilter":9729,
		"minFilter":9729,
		"wrapS":10497,
		"wrapT":10497
	}],
	"textures":[{
		"sampler":0,
		"source":0
	},
	{
		"sampler":1,
		"source":1
	}],
	"materials":[{
		"pbrMetallicRoughness":{
			"baseColorFactor":[0.64,
			0.64,
			0.64,
			1.0],
			"metallicFactor":0.0,
			"roughnessFactor":0.5
		},
		"emissiveFactor":[0.0,
		0.0,
		0.0],
		"alphaMode":"OPAQUE",
		"name":"lockbodycolor",
		"doubleSided":false
	},
	{
		"pbrMetallicRoughness":{
			"baseColorTexture":{
				"index":0
			},
			"baseColorFactor":[0.8,
			0.8,
			0.8,
			1.0],
			"metallicFactor":0.0,
			"roughnessFactor":0.5
		},
		"normalTexture":{
			"index":1,
			"scale":0.5
		},
		"emissiveFactor":[0.0,
		0.0,
		0.0],
		"alphaMode":"OPAQUE",
		"name":"lockkey",
		"doubleSided":false
	}]
}